<?xml version="1.0" standalone="yes"?><svg xmlns="http://www.w3.org/2000/svg" viewBox="0 0 456.73 101.28"><defs><style>.cls-1{fill:#fff;}.cls-2{fill:#d1d3d4;}</style></defs><g id="Layer_2" data-name="Layer 2"><g id="Layer_1-2" data-name="Layer 1"><path class="cls-1" d="M37.07,11.63H35.59C34.47,4.69,29.54,1.9,22.9,1.9,16.08,1.9,6.17,6.47,6.17,20.7c0,12,8.54,20.58,17.68,20.58,5.87,0,10.74-4,11.92-10.26l1.36.36L35.77,40c-2.49,1.54-9.19,3.14-13.1,3.14C8.78,43.18,0,34.23,0,20.88,0,8.72,10.86,0,22.49,0c4.8,0,9.42,1.54,14,3.14Z"/><path class="cls-1" d="M58.92,12.52c9.61,0,15.9,6.52,15.9,15.06A15.85,15.85,0,0,1,58.5,43c-9.78,0-16.25-6.28-16.25-15.36C42.25,18.33,50.2,12.52,58.92,12.52Zm.24,28.58c7.47,0,9.85-6.51,9.85-12.92,0-8.31-4.69-13.77-11-13.77-7.12,0-10,6.23-10,12.64C48.06,35,52.93,41.1,59.16,41.1Z"/><path class="cls-1" d="M83.41,17.38c0-2.26-1.6-2.61-4.39-2.61V13.23c2.25.06,4.56.12,6.82.12s4.86-.06,7.06-.12v1.54c-2.61,0-4.4.18-4.4,2.61v9h16.2v-9c0-2.43-1.78-2.61-4.39-2.61V13.23c2.2.06,4.69.12,7.06.12s4.57-.06,6.82-.12v1.54c-2.79,0-4.39.35-4.39,2.61V38.14c0,2.26,1.6,2.61,4.39,2.61v1.54c-2.25-.06-4.56-.11-6.82-.11s-4.86,0-7.06.11V40.75c2.61,0,4.39-.17,4.39-2.61v-9.9H88.5v9.9c0,2.44,1.79,2.61,4.4,2.61v1.54c-2.2-.06-4.69-.11-7.06-.11s-4.57,0-6.82.11V40.75c2.79,0,4.39-.35,4.39-2.61Z"/><path class="cls-1" d="M143.29,42.29c-4.27-.06-8.48-.11-12.76-.11-3.79,0-7.64,0-11.44.11V40.75c2.79,0,4.39-.35,4.39-2.61V17.38c0-2.26-1.6-2.61-4.39-2.61V13.23c2.67.06,5.34.12,8,.12,4.86,0,9.78-.06,14.59-.12l.35,6.28H140.8c-.71-4-1.72-4.39-7.83-4.39h-4.39V26.34h4.93c3,0,4.27-.06,4.27-4.16h1.54c-.06,1.55-.12,3.14-.12,4.75s.06,3.26.12,4.93h-1.54c0-3.27-.78-3.62-4.27-3.62h-4.93V36.9c0,2.55,1.42,3.5,6.35,3.5,6,0,6.41-.77,8.72-4.69h1.48Z"/><path class="cls-1" d="M153.74,17.56c0-2.67-3.56-2.79-4.75-2.79V13.23c1.43.06,2.79.12,4.15.12s2.73-.06,4-.12l18.09,21.24V18.93c0-4.1-1.6-4.16-4.75-4.16V13.23c1.9.06,4,.12,5.88.12,1.71,0,3.61-.06,5.33-.12v1.54c-2.79,0-4.09.12-4.09,3.09V43h-1.42l-20-23.37V35.47c0,4.28.59,5.28,5,5.28v1.54c-2-.06-4.21-.11-6.23-.11s-4,0-6,.11V40.75c4.87,0,4.87-2.43,4.87-6.7Z"/><path class="cls-2" d="M202.89.89c2.67.12,5.34.12,8,.12,2,0,4.09-.12,6.58-.12,6.11,0,14.89,2.55,14.89,11.81,0,7-6.53,11.86-12.75,11.86-1.19,0-2.14-.06-3-.06v-2a14.27,14.27,0,0,0,2.25.12c5.11,0,7.36-5,7.36-9.31,0-8.25-5.75-10.56-9.67-10.56a16.79,16.79,0,0,0-2.61.18V36.48c0,4.16,2.26,4.22,5.46,4.27v1.54c-2.91,0-5.46-.11-8.07-.11-2.85,0-5.63,0-8.6.11V40.75c3.14,0,5.4-.11,5.4-4.27V8.24c0-4.56-.77-5.81-5.22-5.81Z"/><path class="cls-2" d="M240.86,17.38c0-2.26-1.6-2.61-4.39-2.61V13.23c2.25.06,4.56.12,6.82.12,2.85,0,6.82-.12,8.84-.12,4.92,0,9,2.43,9,7.18,0,3.38-2.26,5.63-6.35,7,6.35,11,7.89,12.46,11.68,13.35v1.54c-1.13-.06-2.43-.11-3.56-.11-1.3,0-2.55,0-3.85.11-2.32-2.61-6-8.72-9.08-13.76-.59.06-1.36.12-2,.12s-1.43-.06-2-.12v9.61c0,2.44,1.78,2.61,4.39,2.61v1.54c-2.2-.06-4.69-.11-7.06-.11s-4.57,0-6.82.11V40.75c2.79,0,4.39-.35,4.39-2.61Zm7.29,9.38c5,0,7.84-1.9,7.84-6.35,0-3.74-2.62-5.64-7.12-5.64-.54,0-2.32.12-2.91.18V26.76Z"/><path class="cls-2" d="M274.67,17.38c0-2.26-1.59-2.61-4.39-2.61V13.23c2.26.06,4.57.12,6.83.12s4.86-.06,7.06-.12v1.54c-2.79,0-4.39.35-4.39,2.61V38.14c0,2.26,1.6,2.61,4.39,2.61v1.54c-2.2-.06-4.69-.11-7.06-.11s-4.57,0-6.83.11V40.75c2.8,0,4.39-.35,4.39-2.61Z"/><path class="cls-2" d="M291.58,17.56c-.89-2.2-1.25-2.79-4-2.79V13.23c2,.06,4.15.12,6.22.12s4.4-.06,6.59-.12v1.54h-1.42c-1.37,0-2.14.35-2.14,1.42a5,5,0,0,0,.42,1.55l7.65,18.92,7-17.73a6.88,6.88,0,0,0,.65-2.62c0-1.54-1.84-1.54-3.92-1.54V13.23c1.9.06,3.92.12,5.82.12,1.43,0,3-.06,4.45-.12v1.54c-1.9,0-2.56,0-4.09,3.68L304.27,43H302.2Z"/><path class="cls-2" d="M334,40.75h.71c1.48,0,3-.41,3-1.42a4.94,4.94,0,0,0-.48-2l-2.2-6H324.92l-1.3,3.85a17.39,17.39,0,0,0-1,3.86c0,1.43,2,1.66,3.08,1.66h.71v1.54c-2-.06-4-.11-6-.11-1.54,0-3.26,0-4.86.11V40.75c3,0,3.92-1.25,4.39-2.49l8.48-21.65a6,6,0,0,0,.6-2,4.75,4.75,0,0,0-.12-.83l4.56-1.72,8.9,25.15c.95,2.73,1.84,3.5,5,3.5v1.54c-2.25-.06-4.45-.11-6.64-.11s-4.45,0-6.64.11ZM330.08,17.5H330l-4.33,12h8.73Z"/><path class="cls-2" d="M357.08,15.12h-4.51c-3.62,0-4.33.48-5.34,4.51h-1.54l.83-7.82h1.18c0,1.12,1.37,1.42,2.62,1.42h18.91c1.37,0,2.09,0,3.15-1.42h1.19L373,19.63h-1.61c-.35-3.79-.83-4.51-3.26-4.51h-5.93v23c0,2.26,1.6,2.61,4.74,2.61v1.54c-2.54-.06-5-.11-7.41-.11s-4.57,0-7.18.11V40.75c3.15,0,4.75-.35,4.75-2.61Z"/><path class="cls-2" d="M401,42.29c-4.26-.06-8.48-.11-12.74-.11-3.8,0-7.65,0-11.46.11V40.75c2.79,0,4.4-.35,4.4-2.61V17.38c0-2.26-1.61-2.61-4.4-2.61V13.23c2.67.06,5.34.12,8,.12,4.87,0,9.79-.06,14.6-.12l.35,6.28h-1.24c-.72-4-1.73-4.39-7.84-4.39h-4.38V26.34h4.92c3,0,4.27-.06,4.27-4.16H397c-.06,1.55-.12,3.14-.12,4.75s.06,3.26.12,4.93h-1.54c0-3.27-.77-3.62-4.27-3.62h-4.92V36.9c0,2.55,1.41,3.5,6.34,3.5,6,0,6.41-.77,8.73-4.69h1.47Z"/><path class="cls-2" d="M212.59,76.72c-1.48-3.8-3.2-7.65-4.57-11.5-1.36-3.56-2.31-4.69-6.22-4.69V59c2.78.06,5.57.11,8.36.11,2.49,0,5-.11,7.53-.11v1.54c-.89.06-1.72.06-2.55.17a1.47,1.47,0,0,0-1.54,1.43c0,2,3.14,9.14,3.79,10.86l7.89,20.28,4.51-11.74c1.42-3.86,3.08-7.65,4.33-11.51.6-1.9,1.84-4.8,1.84-6.77,0-2.78-2.37-2.61-4.51-2.72V59c2.32.06,4.69.11,7,.11,1.84,0,3.69-.05,5.52-.11v1.54a4.19,4.19,0,0,0-4,2.31c-.36.66-4.4,10.92-4.51,11.22l-10.86,27.22h-2.19Z"/><path class="cls-2" d="M264.91,100.39c-4.27,0-8.48-.12-12.75-.12-3.8,0-7.66.07-11.45.12V98.85c2.79,0,4.39-.36,4.39-2.61V75.48c0-2.26-1.6-2.62-4.39-2.62V71.33c2.67,0,5.34.12,8,.12,4.86,0,9.78-.07,14.59-.12l.36,6.28h-1.24c-.72-4-1.73-4.39-7.84-4.39H250.2V84.43h4.93c3,0,4.27-.05,4.27-4.14h1.54c-.06,1.54-.12,3.13-.12,4.74s.06,3.26.12,4.92H259.4c0-3.26-.77-3.62-4.27-3.62H250.2V95c0,2.55,1.43,3.5,6.35,3.5,6,0,6.4-.77,8.72-4.68h1.48Z"/><path class="cls-2" d="M276,75.66c0-2.67-3.56-2.8-4.74-2.8V71.33c1.42,0,2.79.12,4.15.12s2.73-.07,4-.12l18.09,21.23V77c0-4.1-1.6-4.16-4.74-4.16V71.33c1.9,0,4,.12,5.87.12,1.72,0,3.62-.07,5.34-.12v1.53c-2.78,0-4.09.13-4.09,3.1V101.1h-1.43L278.32,77.73V93.57c0,4.27.59,5.28,5,5.28v1.54c-1.95,0-4.21-.12-6.22-.12s-4,.07-6.06.12V98.85c4.87,0,4.87-2.43,4.87-6.7Z"/><path class="cls-2" d="M318.49,73.22H314c-3.61,0-4.32.48-5.33,4.51H307.1l.83-7.82h1.18c0,1.12,1.37,1.42,2.62,1.42h18.92c1.36,0,2.08,0,3.14-1.42H335l-.6,7.82h-1.59c-.37-3.79-.84-4.51-3.27-4.51h-5.93v23c0,2.25,1.6,2.61,4.74,2.61v1.54c-2.55,0-5-.12-7.41-.12s-4.57.07-7.18.12V98.85c3.15,0,4.75-.36,4.75-2.61Z"/><path class="cls-2" d="M341.86,75c0-2.14-2.49-2.14-4.09-2.14V71.33c2.19,0,4.56.12,6.76.12s4.27-.07,6.29-.12v1.53c-1.78,0-3.86,0-3.86,2V91c0,5.45,3.38,7.65,8,7.65,8.31,0,8.31-6.46,8.31-12.39v-7c0-5.93-.6-6.41-4.57-6.41V71.33c2,0,4,.12,5.93.12,1.66,0,3.26-.07,4.93-.12v1.53c-2,0-3.57.3-3.57,4.16v12c0,6.82-3.26,12-11.92,12-7.59,0-12.16-2.9-12.16-9.79Z"/><path class="cls-2" d="M378.35,75.48c0-2.26-1.61-2.62-4.39-2.62V71.33c2.25,0,4.56.12,6.82.12,2.84,0,6.82-.12,8.84-.12,4.92,0,8.95,2.43,8.95,7.17,0,3.39-2.24,5.64-6.34,7,6.34,11,7.89,12.46,11.69,13.35v1.54c-1.13,0-2.44-.12-3.56-.12-1.31,0-2.56.07-3.86.12-2.31-2.61-6-8.72-9.08-13.76-.59.06-1.36.12-1.95.12s-1.43-.06-2-.12v9.61c0,2.43,1.78,2.61,4.39,2.61v1.54c-2.2,0-4.69-.12-7.06-.12s-4.57.07-6.82.12V98.85c2.78,0,4.39-.36,4.39-2.61Zm7.29,9.37c5,0,7.83-1.9,7.83-6.35,0-3.74-2.61-5.64-7.11-5.64-.54,0-2.32.13-2.91.18V84.85Z"/><path class="cls-2" d="M431.28,100.39c-4.27,0-8.48-.12-12.76-.12-3.79,0-7.65.07-11.44.12V98.85c2.78,0,4.38-.36,4.38-2.61V75.48c0-2.26-1.6-2.62-4.38-2.62V71.33c2.66,0,5.33.12,8,.12,4.85,0,9.78-.07,14.59-.12l.35,6.28h-1.25c-.7-4-1.71-4.39-7.82-4.39h-4.4V84.43h4.93c3,0,4.27-.05,4.27-4.14h1.54c-.05,1.54-.11,3.13-.11,4.74s.06,3.26.11,4.92h-1.54c0-3.26-.77-3.62-4.27-3.62h-4.93V95c0,2.55,1.43,3.5,6.35,3.5,6,0,6.41-.77,8.72-4.68h1.49Z"/><path class="cls-2" d="M438,93.21h1.36c1.19,4.15,3,6.35,7.35,6.35,4.57,0,5.64-3.09,5.64-4.92,0-2.43-1.36-4-5.34-6.06-6.53-3.37-8.24-5.63-8.24-10.26,0-4,3.49-7.71,8.65-7.71,2.26,0,5,.54,7,.6L455,77h-1.24c-.66-2.37-2-4.86-5.88-4.86-3.09,0-5.16,2-5.16,4.74s.89,4,6.59,6.76c6.29,3.09,7.47,5.58,7.47,9.32,0,4.74-4.39,8.12-10.5,8.12a16.72,16.72,0,0,1-7.36-1.6Z"/></g></g></svg>