<?xml version="1.0" encoding="utf-8"?>
<!-- Generator: Adobe Illustrator 25.0.0, SVG Export Plug-In . SVG Version: 6.00 Build 0)  -->
<svg version="1.1" id="Layer_1" xmlns="http://www.w3.org/2000/svg" xmlns:xlink="http://www.w3.org/1999/xlink" x="0px" y="0px"
	 viewBox="0 0 346 101" style="enable-background:new 0 0 346 101;" xml:space="preserve">
<style type="text/css">
	.st0{fill:#FFFFFF;}
	.st1{fill:#D1D3D4;}
</style>
<g>
	<g>
		<g>
			<path class="st0" d="M124.49,66.66h2.08c2.25,0,3.16-0.48,3.16-2.73V37.62c0-2.25-0.91-2.73-3.16-2.73h-2.08v-2.41h29.58
				l0.59,13.74h-2.09c-1.18-8.08-3.21-11.34-10.8-11.34h-3.42c-2.3,0-3.16,0.48-3.16,2.73v11.29h2.83c5.29,0,6.47-2.57,6.53-7.11
				h1.98v17.06h-1.98c-0.05-4.55-1.23-7.59-6.53-7.59h-2.83v12.67c0,2.25,0.86,2.73,3.16,2.73h4.49c7.65,0,9.25-4.17,10.8-12.46
				h2.03l-0.96,14.87h-30.22V66.66z"/>
			<path class="st0" d="M161.12,49.98c-1.07-2.51-1.6-3.21-4.22-3.37v-2.3h12.03v2.3c-2.25,0.16-3,0.54-3,1.28
				c0,0.69,0.16,1.5,0.59,2.67l4.81,12.94l4.44-11.66c0.59-1.55,0.91-2.73,0.91-3.58c0-1.18-0.91-1.5-3.05-1.66v-2.3h9.84v2.3
				c-2.57,0.16-3.16,1.02-4.12,3.37l-8.13,20.11h-1.98L161.12,49.98z"/>
			<path class="st0" d="M197.55,55c1.87,0,2.41-0.37,2.41-1.87c0-4.6-1.92-7.43-5.08-7.43c-3.1,0-5.67,3.16-5.99,9.31H197.55z
				 M183.64,56.82c0-8.02,5.72-13.42,11.39-13.42c5.4,0,10.21,4.44,10.21,11.82c0,0.48,0,1.5-0.11,2.19h-16.26
				c0.27,5.83,2.78,9.52,7.01,9.52c3,0,5.35-1.44,7.65-4.49l1.71,1.12c-2.57,3.96-5.78,6.36-10.48,6.36
				C188.24,69.93,183.64,64.84,183.64,56.82"/>
			<path class="st0" d="M208.51,66.66h0.86c2.19,0,2.62-0.54,2.62-2.73V49.44c0-2.19-0.43-2.73-2.62-2.73h-0.86v-2.35l8.34-0.64
				l-0.8,8.5h0.37c2.03-5.29,4.81-8.61,8.08-8.61c3.05,0,4.81,1.82,4.81,4.6c0,2.41-1.45,4.06-3.26,4.06
				c-1.93,0-2.89-1.39-2.89-2.67c0-1.18,0.48-1.98,1.34-2.67c0.43-0.32,0.32-0.86-0.32-0.86c-3.48,0-7.38,7.7-7.38,13.37v4.49
				c0,2.19,0.48,2.73,2.62,2.73h1.71v2.41h-12.62V66.66z"/>
			<path class="st0" d="M245.09,51.19c6.35,0,8.65-3.04,8.65-7.92c0-5.03-2.46-7.71-8.28-7.71h-1.84c-2.25,0-3.09,0.47-3.09,2.67
				v12.95H245.09z M230.04,66.71h2.04c2.2,0,3.09-0.47,3.09-2.67v-25.8c0-2.2-0.89-2.67-3.09-2.67h-2.04v-2.36h15.62
				c8.28,0,14.16,3.36,14.16,9.91c0,6.87-6.76,10.49-14.89,10.49h-4.4v10.43c0,2.2,0.84,2.67,3.09,2.67h2.94v2.36h-16.52V66.71z"/>
			<path class="st0" d="M276.96,56.96c0-6.34-2.1-10.8-5.98-10.8c-3.93,0-5.82,4.35-5.82,10.7c0,6.34,2.1,10.8,5.98,10.8
				C275.07,67.66,276.96,63.3,276.96,56.96 M259.71,56.96c0-7.13,5.19-13.06,11.43-13.06c6.29,0,11.27,5.82,11.27,12.95
				c0,7.23-5.14,13.05-11.43,13.05C264.69,69.91,259.71,64.14,259.71,56.96"/>
			<path class="st0" d="M285.45,66.71h0.79c1.99,0,2.46-0.52,2.46-2.67V49.88c0-2.2-0.47-2.73-2.46-2.73h-1.26v-2.31l8.44-0.63
				v19.82c0,2.15,0.42,2.67,2.46,2.67h0.63v2.36h-11.06V66.71z M293,33.53c-1.4-1.4-3.68-1.4-5.07,0c-1.4,1.4-1.4,3.68,0,5.08
				c1.39,1.4,3.67,1.4,5.07,0C294.41,37.2,294.41,34.93,293,33.53"/>
			<path class="st0" d="M300.39,66.71h0.84c2.15,0,2.57-0.52,2.57-2.67V49.83c0-2.15-0.42-2.67-2.57-2.67h-0.84v-2.31l8.18-0.63
				l-0.63,6.76h0.31c1.73-3.77,4.51-6.66,8.23-6.66c4.4,0,6.87,2.62,6.87,8.13v11.59c0,2.15,0.42,2.67,2.62,2.67h0.52v2.36h-11.48
				v-2.36h1c2.2,0,2.62-0.52,2.62-2.67V52.61c0-3.36-1.1-5.03-3.62-5.03c-3.56,0-6.5,5.35-6.5,10.12v6.34
				c0,2.15,0.47,2.67,2.62,2.67h1v2.36h-11.74V66.71z"/>
			<path class="st0" d="M331.06,62.52V47.31h-3.77v-1.89c4.3-0.94,5.82-3.88,6.34-10.59h2.25v9.96h7.03v2.52h-7.13V62.1
				c0,3.09,0.94,4.51,2.83,4.51c1.99,0,3.41-1.73,3.62-6.24h2.15c0,6.03-2.67,9.44-6.76,9.44C333.58,69.8,331.06,67.55,331.06,62.52
				"/>
		</g>
	</g>
	<g>
		<path class="st0" d="M44.99,11.54c-0.91-0.91-2.12-1.42-3.41-1.42c-1.29,0-2.5,0.5-3.42,1.42c-1.88,1.88-1.88,4.95,0,6.83
			c0.91,0.91,2.12,1.42,3.42,1.42c1.29,0,2.5-0.5,3.42-1.42c0.91-0.91,1.41-2.12,1.41-3.41C46.4,13.66,45.9,12.45,44.99,11.54"/>
		<path class="st0" d="M62.77,11.54c-0.91-0.91-2.13-1.42-3.41-1.42c-1.29,0-2.5,0.5-3.41,1.41c-0.91,0.91-1.42,2.13-1.42,3.42
			c0,1.29,0.5,2.5,1.42,3.42c0.91,0.91,2.12,1.41,3.41,1.41c1.29,0,2.5-0.5,3.42-1.42C64.66,16.48,64.66,13.42,62.77,11.54"/>
		<path class="st1" d="M53.88,20.18c-0.91-0.91-2.12-1.42-3.41-1.42c-1.29,0-2.5,0.5-3.42,1.42c-1.88,1.88-1.88,4.95,0,6.83
			c0.91,0.91,2.12,1.42,3.42,1.42c1.29,0,2.5-0.5,3.41-1.42C55.76,25.13,55.76,22.07,53.88,20.18"/>
		<path class="st0" d="M62.77,29.08c-0.91-0.91-2.13-1.41-3.41-1.41c-1.29,0-2.5,0.5-3.41,1.41c-0.91,0.91-1.42,2.12-1.42,3.41
			c0,1.29,0.5,2.51,1.42,3.42c0.91,0.91,2.12,1.41,3.41,1.41c1.29,0,2.5-0.5,3.42-1.42C64.66,34.02,64.65,30.96,62.77,29.08"/>
		<path class="st0" d="M71.67,38.22c-0.91-0.91-2.12-1.42-3.41-1.42c-1.29,0-2.5,0.5-3.41,1.42c-0.91,0.91-1.41,2.12-1.41,3.41
			c0,1.29,0.5,2.5,1.41,3.41c0.91,0.91,2.13,1.41,3.41,1.41c1.29,0,2.5-0.5,3.41-1.41c0.91-0.91,1.42-2.13,1.42-3.41
			C73.08,40.35,72.58,39.13,71.67,38.22"/>
		<path class="st0" d="M80.56,46.86c-0.91-0.91-2.12-1.41-3.41-1.41c-1.29,0-2.5,0.5-3.41,1.41c-0.91,0.91-1.42,2.13-1.42,3.42
			c0,1.29,0.51,2.5,1.42,3.41c0.91,0.91,2.12,1.41,3.41,1.41c1.29,0,2.5-0.5,3.42-1.42C82.44,51.81,82.44,48.75,80.56,46.86"/>
		<path class="st0" d="M27.19,11.54c-0.91-0.91-2.12-1.42-3.41-1.42c-1.29,0-2.5,0.5-3.41,1.41c-0.92,0.91-1.42,2.13-1.42,3.42
			c0,1.29,0.5,2.51,1.42,3.41c0.91,0.91,2.12,1.42,3.41,1.42c1.29,0,2.5-0.5,3.42-1.42c0.91-0.91,1.41-2.12,1.41-3.41
			C28.61,13.66,28.11,12.45,27.19,11.54"/>
		<path class="st1" d="M36.09,20.18c-0.91-0.91-2.13-1.42-3.42-1.42c-1.29,0-2.5,0.5-3.42,1.42c-1.87,1.88-1.87,4.95,0,6.83
			c0.91,0.91,2.13,1.42,3.42,1.42c1.29,0,2.5-0.5,3.42-1.42C37,26.1,37.5,24.89,37.5,23.6C37.5,22.31,37,21.09,36.09,20.18"/>
		<path class="st0" d="M44.99,29.33c-0.91-0.91-2.12-1.41-3.41-1.41c-1.29,0-2.5,0.5-3.42,1.41c-0.91,0.91-1.42,2.12-1.42,3.42
			c0,1.29,0.5,2.5,1.42,3.42c0.91,0.91,2.12,1.41,3.42,1.41c1.29,0,2.5-0.5,3.42-1.41C46.87,34.27,46.87,31.21,44.99,29.33"/>
		<path class="st0" d="M53.88,37.97c-0.91-0.91-2.12-1.42-3.41-1.42c-1.29,0-2.51,0.5-3.42,1.42c-0.91,0.91-1.42,2.12-1.42,3.41
			c0,1.29,0.5,2.5,1.42,3.41c0.91,0.91,2.12,1.41,3.42,1.41c1.29,0,2.5-0.5,3.41-1.41C55.76,42.92,55.76,39.86,53.88,37.97"/>
		<path class="st1" d="M62.77,46.86c-0.91-0.91-2.13-1.41-3.41-1.41c-1.29,0-2.5,0.5-3.41,1.41c-0.91,0.91-1.42,2.13-1.42,3.42
			c0,1.29,0.5,2.5,1.42,3.41c0.91,0.91,2.12,1.41,3.41,1.41c1.29,0,2.5-0.5,3.42-1.42C64.65,51.81,64.65,48.75,62.77,46.86"/>
		<path class="st0" d="M71.67,55.76c-0.91-0.91-2.13-1.42-3.41-1.42c-1.29,0-2.5,0.5-3.42,1.42c-0.91,0.91-1.41,2.12-1.41,3.41
			c0,1.29,0.5,2.5,1.41,3.41C65.76,63.5,66.97,64,68.26,64c1.29,0,2.5-0.5,3.41-1.41c0.91-0.91,1.41-2.12,1.41-3.41
			C73.08,57.89,72.58,56.67,71.67,55.76"/>
		<path class="st0" d="M18.3,20.43c-0.91-0.91-2.12-1.42-3.41-1.42c-1.29,0-2.5,0.5-3.42,1.42c-0.91,0.91-1.41,2.12-1.41,3.42
			c0,1.29,0.5,2.5,1.41,3.41c0.91,0.91,2.12,1.42,3.42,1.42c1.29,0,2.5-0.5,3.41-1.42c0.91-0.91,1.42-2.12,1.42-3.41
			C19.72,22.56,19.22,21.34,18.3,20.43"/>
		<path class="st0" d="M27.19,29.33c-0.91-0.91-2.12-1.41-3.41-1.41c-1.29,0-2.5,0.5-3.41,1.41c-0.92,0.91-1.42,2.12-1.42,3.41
			c0,1.29,0.5,2.51,1.42,3.42c0.91,0.91,2.12,1.41,3.41,1.41c1.29,0,2.5-0.5,3.42-1.41c0.91-0.91,1.41-2.12,1.41-3.41
			C28.61,31.45,28.11,30.24,27.19,29.33"/>
		<path class="st0" d="M53.88,2.64c-0.91-0.91-2.12-1.42-3.41-1.42c-1.29,0-2.5,0.5-3.42,1.41c-1.88,1.88-1.88,4.95,0,6.83
			c0.91,0.91,2.13,1.41,3.42,1.41c1.29,0,2.5-0.5,3.41-1.42c0.91-0.91,1.42-2.12,1.42-3.41C55.29,4.77,54.79,3.56,53.88,2.64"/>
		<path class="st0" d="M53.88,91.34c-0.91-0.92-2.12-1.42-3.42-1.42c-1.29,0-2.5,0.5-3.42,1.41c-1.88,1.88-1.88,4.95,0,6.83
			c0.91,0.91,2.12,1.41,3.41,1.41c1.29,0,2.5-0.5,3.41-1.42c0.91-0.91,1.42-2.12,1.42-3.41C55.29,93.47,54.79,92.25,53.88,91.34"/>
		<path class="st0" d="M62.77,82.45c-0.91-0.91-2.13-1.42-3.41-1.42c-1.29,0-2.5,0.5-3.41,1.41c-1.89,1.88-1.89,4.95,0,6.83
			c0.91,0.91,2.13,1.41,3.41,1.41c1.29,0,2.5-0.5,3.41-1.41c0.91-0.91,1.42-2.12,1.42-3.42C64.19,84.57,63.69,83.36,62.77,82.45"/>
		<path class="st0" d="M80.56,82.45c-0.91-0.91-2.12-1.42-3.41-1.42c-1.29,0-2.5,0.5-3.42,1.41c-1.88,1.88-1.88,4.95,0,6.83
			c0.91,0.91,2.12,1.41,3.42,1.41c1.29,0,2.5-0.5,3.41-1.41c0.91-0.91,1.42-2.12,1.42-3.42C81.98,84.57,81.47,83.36,80.56,82.45"/>
		<path class="st0" d="M80.56,11.54c-0.91-0.91-2.12-1.42-3.41-1.42c-1.29,0-2.5,0.5-3.41,1.41c-0.91,0.91-1.42,2.13-1.42,3.42
			c0,1.29,0.51,2.5,1.42,3.41c0.91,0.91,2.12,1.42,3.41,1.42c1.29,0,2.5-0.5,3.41-1.42c0.91-0.91,1.41-2.12,1.41-3.41
			C81.98,13.66,81.47,12.45,80.56,11.54"/>
		<path class="st0" d="M89.46,20.43c-0.91-0.91-2.13-1.42-3.41-1.42c-1.29,0-2.5,0.5-3.42,1.42c-1.88,1.88-1.88,4.95,0,6.82
			c0.91,0.92,2.12,1.42,3.42,1.42c1.29,0,2.5-0.5,3.41-1.42C91.34,25.38,91.34,22.32,89.46,20.43"/>
		<path class="st1" d="M71.67,20.18c-0.91-0.91-2.13-1.42-3.41-1.42c-1.29,0-2.5,0.5-3.42,1.42c-1.88,1.88-1.88,4.95,0,6.83
			c0.91,0.91,2.13,1.42,3.42,1.42c1.29,0,2.5-0.5,3.41-1.42c0.91-0.91,1.42-2.12,1.42-3.41C73.08,22.31,72.58,21.09,71.67,20.18"/>
		<path class="st0" d="M80.56,29.33c-0.91-0.91-2.12-1.41-3.41-1.41c-1.29,0-2.5,0.5-3.41,1.41c-0.91,0.91-1.42,2.12-1.42,3.41
			c0,1.29,0.5,2.51,1.42,3.42c0.91,0.91,2.12,1.41,3.41,1.41c1.29,0,2.5-0.5,3.42-1.41c0.91-0.91,1.41-2.12,1.41-3.41
			C81.98,31.45,81.47,30.24,80.56,29.33"/>
		<path class="st1" d="M36.09,37.97c-0.91-0.91-2.12-1.42-3.42-1.42c-1.29,0-2.5,0.5-3.42,1.42c-1.88,1.89-1.88,4.94,0,6.83
			c0.92,0.91,2.13,1.41,3.42,1.41c1.29,0,2.5-0.5,3.42-1.41c0.91-0.91,1.41-2.13,1.41-3.41C37.5,40.1,37,38.88,36.09,37.97"/>
		<path class="st1" d="M44.99,46.86c-0.91-0.91-2.12-1.41-3.41-1.41c-1.29,0-2.5,0.5-3.42,1.41c-1.88,1.88-1.88,4.94,0,6.83
			c0.91,0.91,2.12,1.41,3.42,1.41c1.29,0,2.5-0.5,3.42-1.42C46.87,51.81,46.87,48.75,44.99,46.86"/>
		<path class="st0" d="M53.88,55.76c-0.91-0.91-2.12-1.42-3.41-1.42c-1.29,0-2.51,0.5-3.42,1.42c-0.91,0.91-1.41,2.12-1.41,3.41
			c0,1.29,0.5,2.5,1.42,3.41C47.96,63.5,49.18,64,50.47,64c1.29,0,2.5-0.5,3.41-1.41C55.76,60.71,55.76,57.65,53.88,55.76"/>
		<path class="st0" d="M62.77,64.65c-0.91-0.91-2.13-1.41-3.41-1.41c-1.29,0-2.5,0.5-3.41,1.41c-1.88,1.88-1.88,4.95,0,6.83
			c0.91,0.91,2.12,1.41,3.41,1.41c1.29,0,2.5-0.5,3.42-1.41C64.65,69.6,64.66,66.54,62.77,64.65"/>
		<path class="st0" d="M80.56,64.65c-0.91-0.91-2.12-1.41-3.41-1.41c-1.29,0-2.5,0.5-3.41,1.41c-1.88,1.88-1.88,4.95,0,6.83
			c0.91,0.91,2.12,1.41,3.41,1.41c1.29,0,2.5-0.5,3.41-1.41C82.44,69.6,82.44,66.54,80.56,64.65"/>
		<path class="st0" d="M18.3,38.22c-0.91-0.91-2.12-1.42-3.41-1.42c-1.29,0-2.5,0.5-3.42,1.41c-0.91,0.91-1.41,2.12-1.41,3.42
			c0,1.29,0.5,2.5,1.41,3.41c0.91,0.91,2.12,1.41,3.42,1.41c1.29,0,2.5-0.5,3.41-1.41c0.91-0.91,1.42-2.13,1.42-3.41
			C19.72,40.35,19.22,39.13,18.3,38.22"/>
		<path class="st0" d="M27.19,47.12c-0.91-0.91-2.12-1.41-3.41-1.41c-1.29,0-2.5,0.5-3.41,1.41c-0.92,0.91-1.42,2.13-1.42,3.42
			c0,1.29,0.5,2.5,1.42,3.41c0.91,0.91,2.12,1.42,3.41,1.42c1.29,0,2.5-0.5,3.42-1.42C29.08,52.06,29.08,49,27.19,47.12"/>
		<path class="st1" d="M36.09,55.76c-0.91-0.91-2.12-1.42-3.42-1.42c-1.29,0-2.5,0.5-3.42,1.42c-1.88,1.88-1.87,4.95,0,6.83
			C30.17,63.5,31.39,64,32.68,64c1.29,0,2.5-0.5,3.42-1.41c0.91-0.91,1.41-2.12,1.41-3.41C37.5,57.89,37,56.67,36.09,55.76"/>
		<path class="st0" d="M44.99,64.65c-0.91-0.91-2.12-1.41-3.41-1.41c-1.29,0-2.5,0.5-3.42,1.41c-1.88,1.88-1.88,4.95,0,6.83
			c0.91,0.91,2.12,1.41,3.42,1.41c1.29,0,2.5-0.5,3.42-1.41C46.87,69.6,46.87,66.54,44.99,64.65"/>
		<path class="st1" d="M53.88,73.55c-0.91-0.91-2.12-1.41-3.41-1.41c-1.29,0-2.51,0.5-3.42,1.41c-0.91,0.91-1.41,2.12-1.41,3.41
			c0,1.29,0.5,2.5,1.42,3.41c0.91,0.91,2.12,1.42,3.42,1.42c1.29,0,2.5-0.5,3.41-1.42C55.76,78.5,55.76,75.43,53.88,73.55"/>
		<path class="st0" d="M9.41,47.11C8.49,46.2,7.28,45.7,5.99,45.7c-1.29,0-2.5,0.5-3.41,1.41c-0.91,0.91-1.42,2.13-1.42,3.42
			c0,1.29,0.5,2.5,1.42,3.41c0.91,0.91,2.12,1.41,3.41,1.41c1.29,0,2.5-0.5,3.42-1.42C11.29,52.06,11.29,49,9.41,47.11"/>
		<path class="st0" d="M18.3,56.01c-0.91-0.91-2.12-1.42-3.41-1.42c-1.29,0-2.5,0.5-3.42,1.42c-0.91,0.91-1.41,2.12-1.41,3.41
			c0,1.29,0.5,2.5,1.41,3.41c0.91,0.91,2.12,1.41,3.41,1.41c1.29,0,2.5-0.5,3.41-1.41c0.92-0.91,1.42-2.12,1.42-3.41
			C19.72,58.14,19.22,56.92,18.3,56.01"/>
		<path class="st0" d="M27.19,64.66c-0.91-0.91-2.12-1.41-3.41-1.41c-1.29,0-2.5,0.5-3.41,1.41c-0.92,0.91-1.42,2.13-1.42,3.42
			c0,1.29,0.5,2.5,1.42,3.41c0.91,0.91,2.12,1.41,3.41,1.41c1.29,0,2.5-0.5,3.42-1.41C29.08,69.6,29.08,66.54,27.19,64.66"/>
		<path class="st1" d="M36.09,73.55c-0.91-0.91-2.13-1.41-3.42-1.41c-1.29,0-2.5,0.5-3.42,1.41c-1.88,1.88-1.87,4.95,0,6.83
			c0.91,0.91,2.13,1.42,3.42,1.42c1.29,0,2.5-0.5,3.42-1.42c0.91-0.91,1.41-2.12,1.41-3.41C37.5,75.68,37,74.46,36.09,73.55"/>
		<path class="st0" d="M89.46,73.55c-0.91-0.91-2.12-1.41-3.41-1.41c-1.29,0-2.5,0.5-3.42,1.41c-0.91,0.91-1.41,2.12-1.41,3.41
			c0,1.29,0.5,2.5,1.41,3.41c0.91,0.91,2.13,1.42,3.42,1.42c1.29,0,2.5-0.5,3.41-1.42c0.91-0.91,1.42-2.12,1.42-3.41
			C90.87,75.68,90.37,74.46,89.46,73.55"/>
		<path class="st1" d="M71.67,73.55c-0.91-0.91-2.13-1.41-3.41-1.41c-1.29,0-2.5,0.5-3.42,1.41c-0.91,0.91-1.41,2.12-1.41,3.41
			c0,1.29,0.5,2.5,1.41,3.41c0.91,0.91,2.13,1.42,3.42,1.42c1.29,0,2.5-0.5,3.41-1.42c0.91-0.91,1.42-2.12,1.42-3.41
			C73.08,75.68,72.58,74.46,71.67,73.55"/>
		<path class="st0" d="M44.99,82.44c-0.91-0.91-2.13-1.41-3.41-1.41c-1.29,0-2.5,0.5-3.42,1.41c-1.88,1.88-1.88,4.95,0,6.83
			c0.91,0.91,2.13,1.42,3.42,1.42c1.29,0,2.5-0.5,3.41-1.41c0.91-0.91,1.41-2.12,1.41-3.41C46.4,84.57,45.9,83.36,44.99,82.44"/>
		<path class="st0" d="M18.3,73.55c-0.91-0.91-2.12-1.41-3.41-1.41c-1.29,0-2.5,0.5-3.42,1.41c-0.91,0.91-1.41,2.12-1.41,3.41
			c0,1.29,0.5,2.5,1.41,3.41c0.91,0.91,2.12,1.42,3.42,1.42c1.29,0,2.5-0.5,3.41-1.42c0.92-0.91,1.42-2.12,1.42-3.41
			C19.72,75.68,19.22,74.46,18.3,73.55"/>
		<path class="st0" d="M27.19,82.44c-0.91-0.91-2.12-1.41-3.41-1.41c-1.29,0-2.5,0.5-3.41,1.41c-0.92,0.91-1.42,2.13-1.42,3.42
			c0,1.29,0.5,2.5,1.42,3.41c0.91,0.91,2.12,1.42,3.41,1.42c1.29,0,2.5-0.5,3.41-1.41c0.91-0.91,1.42-2.12,1.42-3.41
			C28.61,84.57,28.11,83.36,27.19,82.44"/>
		<path class="st0" d="M89.46,38.22c-0.91-0.91-2.13-1.41-3.41-1.41c-1.29,0-2.5,0.5-3.41,1.41c-0.91,0.91-1.41,2.12-1.41,3.42
			c0,1.29,0.5,2.5,1.41,3.41c0.91,0.91,2.13,1.41,3.42,1.41c1.29,0,2.51-0.5,3.41-1.41c0.91-0.91,1.42-2.13,1.42-3.41
			C90.87,40.35,90.37,39.13,89.46,38.22"/>
		<path class="st0" d="M98.35,47.12c-0.91-0.91-2.12-1.41-3.41-1.41c-1.29,0-2.51,0.5-3.41,1.41c-0.91,0.91-1.42,2.13-1.42,3.42
			c0,1.29,0.5,2.5,1.41,3.41c0.91,0.91,2.13,1.42,3.42,1.42c1.29,0,2.5-0.5,3.41-1.41c0.91-0.91,1.42-2.13,1.41-3.41
			C99.77,49.24,99.26,48.03,98.35,47.12"/>
		<path class="st0" d="M89.46,55.76c-0.91-0.91-2.13-1.42-3.41-1.42c-1.29,0-2.5,0.5-3.42,1.42c-0.91,0.91-1.41,2.12-1.41,3.41
			c0,1.29,0.5,2.5,1.41,3.41C83.54,63.5,84.76,64,86.04,64c1.29,0,2.51-0.5,3.41-1.41c0.91-0.91,1.42-2.12,1.42-3.41
			C90.87,57.89,90.37,56.68,89.46,55.76"/>
	</g>
</g>
</svg>
