<?xml version="1.0" standalone="yes"?><svg width="356" height="156" viewBox="0 0 356 156" fill="none" xmlns="http://www.w3.org/2000/svg">
<path d="M77.1401 44.53V0L38.5601 22.27L77.1401 44.53Z" fill="white"/>
<path d="M38.5601 66.79L77.1401 44.53L38.5601 22.27V66.79Z" fill="#DBDBDB"/>
<path d="M77.1401 133.59V89.0601L38.5601 111.32L77.1401 133.59Z" fill="#DFDFDF"/>
<path d="M38.5601 155.86L77.1401 133.59L38.5601 111.32V155.86Z" fill="white"/>
<path d="M0 89.0598L38.56 66.7898L0 44.5298V89.0598Z" fill="white"/>
<path d="M172.5 29.6301C171.747 28.4391 170.617 27.5343 169.29 27.0601C168.596 26.8162 167.866 26.6911 167.13 26.6901C165.911 26.654 164.703 26.9293 163.62 27.4901C162.683 28.0056 161.883 28.7398 161.29 29.6301C160.678 30.5658 160.235 31.6014 159.98 32.6901C159.709 33.8506 159.575 35.0386 159.58 36.2301C159.576 37.3787 159.71 38.5237 159.98 39.6401C160.237 40.7095 160.68 41.7251 161.29 42.6401C161.887 43.5222 162.686 44.249 163.62 44.7601C164.703 45.3209 165.911 45.5963 167.13 45.5601C167.94 45.6057 168.75 45.4765 169.506 45.1815C170.262 44.8864 170.945 44.4324 171.51 43.8501C172.612 42.5833 173.287 41.002 173.44 39.3301H179.35C179.228 40.9581 178.822 42.5521 178.15 44.0401C177.536 45.3904 176.663 46.6069 175.58 47.6201C174.498 48.6175 173.226 49.3862 171.84 49.8801C170.328 50.414 168.734 50.678 167.13 50.6601C165.169 50.6809 163.225 50.2962 161.42 49.5301C159.779 48.8334 158.309 47.7895 157.11 46.4701C155.926 45.1369 155.016 43.5842 154.43 41.9001C153.79 40.0791 153.472 38.1604 153.49 36.2301C153.466 34.2578 153.78 32.2959 154.42 30.4301C155.003 28.7206 155.913 27.1412 157.1 25.7801C158.293 24.4396 159.764 23.3749 161.41 22.6601C164.613 21.3316 168.18 21.1688 171.49 22.2001C172.813 22.6208 174.052 23.2707 175.15 24.1201C176.24 24.9786 177.148 26.0461 177.82 27.2601C178.545 28.5827 178.994 30.0388 179.14 31.5401H173.22C173.114 30.8607 172.869 30.2105 172.5 29.6301V29.6301Z" fill="white"/>
<path d="M196.1 50.0201V47.2101H195.98C195.35 48.3132 194.398 49.1963 193.25 49.7401C192.182 50.25 191.014 50.5164 189.83 50.5201C188.591 50.563 187.355 50.3661 186.19 49.9402C185.306 49.6019 184.531 49.0278 183.95 48.2802C183.374 47.5084 182.981 46.616 182.8 45.6701C182.57 44.5516 182.46 43.4119 182.47 42.2701V29.8901H188V41.2601C187.914 42.545 188.184 43.8288 188.78 44.9702C189.09 45.401 189.509 45.7419 189.994 45.958C190.479 46.1741 191.012 46.2576 191.54 46.2001C192.152 46.2558 192.769 46.1631 193.339 45.9298C193.908 45.6966 194.413 45.3297 194.81 44.8601C195.595 43.5266 195.944 41.9816 195.81 40.4402V29.8901H201.34V50.0201H196.1Z" fill="white"/>
<path d="M211.09 22.2202V32.3402H211.16C211.819 31.3147 212.78 30.5183 213.91 30.0602C215.05 29.5824 216.274 29.3375 217.51 29.3402C218.578 29.3417 219.634 29.5677 220.609 30.0036C221.584 30.4394 222.456 31.0754 223.17 31.8702C224.025 32.8279 224.681 33.9463 225.1 35.1602C226.087 38.2636 226.087 41.5968 225.1 44.7002C224.683 45.9151 224.027 47.034 223.17 47.9902C222.456 48.785 221.584 49.421 220.609 49.8568C219.634 50.2927 218.578 50.5187 217.51 50.5202C216.144 50.5478 214.785 50.3101 213.51 49.8202C212.37 49.3752 211.429 48.5336 210.86 47.4502H210.78V50.0202H205.53V22.2202H211.09ZM220.04 37.5202C219.877 36.785 219.586 36.0843 219.18 35.4502C218.808 34.8715 218.309 34.3857 217.72 34.0302C217.075 33.6637 216.341 33.4836 215.6 33.5102C214.866 33.4919 214.14 33.6715 213.5 34.0302C212.905 34.3764 212.399 34.8556 212.02 35.4302C211.614 36.0643 211.323 36.7651 211.16 37.5002C210.977 38.3039 210.886 39.1259 210.89 39.9502C210.887 40.7612 210.978 41.5698 211.16 42.3602C211.323 43.0954 211.614 43.7961 212.02 44.4302C212.394 45.0142 212.901 45.501 213.5 45.8502C214.14 46.2089 214.866 46.3885 215.6 46.3702C216.341 46.3968 217.075 46.2167 217.72 45.8502C218.311 45.4976 218.811 45.0112 219.18 44.4302C219.586 43.7961 219.877 43.0954 220.04 42.3602C220.222 41.5698 220.312 40.7612 220.31 39.9502C220.312 39.1326 220.221 38.3174 220.04 37.5202V37.5202Z" fill="white"/>
<path d="M229.27 26.7702V22.2202H234.8V26.7702H229.27ZM234.8 29.8902V50.0202H229.27V29.8902H234.8Z" fill="white"/>
<path d="M243.81 45.0098C244.045 45.4263 244.369 45.7851 244.76 46.0598C245.168 46.3454 245.626 46.5523 246.11 46.6698C246.623 46.7994 247.151 46.8632 247.68 46.8598C248.094 46.859 248.506 46.8154 248.91 46.7298C249.319 46.6443 249.713 46.4995 250.08 46.2998C250.423 46.1059 250.72 45.8398 250.95 45.5198C251.198 45.1592 251.321 44.7271 251.3 44.2898C251.3 43.4598 250.75 42.8398 249.65 42.4198C248.145 41.8959 246.605 41.4815 245.04 41.1798C244.23 40.9998 243.45 40.7798 242.68 40.5398C241.97 40.3017 241.297 39.9651 240.68 39.5398C240.091 39.1492 239.598 38.6294 239.24 38.0198C238.853 37.3385 238.663 36.563 238.69 35.7798C238.642 34.6665 238.906 33.5619 239.45 32.5898C239.935 31.763 240.623 31.0744 241.45 30.5898C242.325 30.1025 243.274 29.7645 244.26 29.5898C245.313 29.3969 246.38 29.2998 247.45 29.2998C248.514 29.3004 249.576 29.4042 250.62 29.6098C251.588 29.7826 252.518 30.1209 253.37 30.6098C254.178 31.1182 254.862 31.8017 255.37 32.6098C255.957 33.5434 256.301 34.6092 256.37 35.7098H251.11C251.124 35.2738 251.018 34.8423 250.805 34.4617C250.592 34.0812 250.279 33.7659 249.9 33.5498C249.103 33.1527 248.221 32.9569 247.33 32.9798C246.996 32.982 246.662 33.002 246.33 33.0398C245.986 33.0723 245.649 33.1566 245.33 33.2898C245.035 33.416 244.774 33.6115 244.57 33.8598C244.346 34.1429 244.235 34.4995 244.26 34.8598C244.255 35.089 244.3 35.3165 244.393 35.5258C244.487 35.7352 244.626 35.921 244.8 36.0698C245.226 36.4098 245.71 36.6676 246.23 36.8298C246.886 37.0425 247.554 37.2162 248.23 37.3498L250.53 37.8598C251.325 38.0374 252.109 38.2577 252.88 38.5198C253.609 38.7499 254.3 39.0869 254.93 39.5198C255.518 39.9455 256.009 40.4908 256.37 41.1198C256.752 41.8427 256.938 42.6528 256.91 43.4698C256.955 44.6323 256.678 45.7846 256.11 46.7998C255.603 47.6782 254.889 48.4196 254.03 48.9598C253.131 49.5238 252.134 49.9139 251.09 50.1098C249.981 50.3309 248.852 50.4415 247.72 50.4398C246.571 50.4398 245.425 50.3225 244.3 50.0898C243.237 49.8868 242.22 49.4902 241.3 48.9198C240.429 48.3762 239.696 47.6365 239.16 46.7598C238.562 45.7372 238.244 44.5746 238.24 43.3898H243.42C243.395 43.9558 243.53 44.5175 243.81 45.0098V45.0098Z" fill="white"/>
<path d="M270.42 29.8901V33.5901H266.42V43.5901C266.323 43.9151 266.315 44.2604 266.398 44.5893C266.481 44.9182 266.652 45.2185 266.892 45.4584C267.131 45.6983 267.432 45.8688 267.761 45.9518C268.09 46.0349 268.435 46.0274 268.76 45.9301C269.056 45.9458 269.353 45.9458 269.65 45.9301C269.925 45.907 270.199 45.867 270.47 45.8102V50.1002C269.953 50.1797 269.432 50.2298 268.91 50.2502C268.34 50.2502 267.78 50.2502 267.24 50.2502C266.427 50.2517 265.615 50.1948 264.81 50.0801C264.106 49.9763 263.428 49.7423 262.81 49.3901C262.222 49.0519 261.743 48.5521 261.43 47.9501C261.059 47.1885 260.884 46.3465 260.92 45.5002V33.5901H257.57V29.8901H260.92V23.8901H266.42V29.8901H270.42Z" fill="white"/>
<path d="M159.34 84.0599C159.658 84.6806 160.117 85.2182 160.68 85.6299C161.284 86.0535 161.962 86.3589 162.68 86.5299C163.445 86.7234 164.231 86.8208 165.02 86.8199C165.606 86.8199 166.191 86.7731 166.77 86.6798C167.376 86.5968 167.967 86.4214 168.52 86.1599C169.05 85.9128 169.515 85.5466 169.88 85.0899C170.262 84.5924 170.457 83.9765 170.43 83.3499C170.444 83.013 170.387 82.677 170.263 82.3635C170.139 82.05 169.951 81.766 169.71 81.5299C169.164 81.0183 168.521 80.6206 167.82 80.3598C166.96 80.0161 166.074 79.7418 165.17 79.5398C164.17 79.3098 163.17 79.0498 162.17 78.7598C161.153 78.5006 160.151 78.1834 159.17 77.8099C158.222 77.4505 157.33 76.959 156.52 76.3499C155.739 75.7449 155.095 74.9815 154.63 74.1098C154.125 73.1027 153.877 71.9861 153.91 70.8598C153.879 69.5599 154.197 68.2754 154.83 67.1398C155.426 66.1 156.242 65.2025 157.22 64.5098C158.236 63.7962 159.37 63.2681 160.57 62.9498C161.79 62.6218 163.047 62.4537 164.31 62.4498C165.717 62.4445 167.12 62.6056 168.49 62.9298C169.768 63.2289 170.979 63.7648 172.06 64.5098C173.087 65.2338 173.932 66.1852 174.53 67.2898C175.169 68.5734 175.475 69.9971 175.42 71.4298H169.42C169.402 70.7131 169.224 70.0094 168.9 69.3698C168.618 68.8465 168.209 68.4028 167.71 68.0798C167.191 67.7598 166.618 67.5362 166.02 67.4198C165.331 67.2867 164.631 67.223 163.93 67.2298C163.436 67.2302 162.944 67.2805 162.46 67.3799C161.98 67.479 161.522 67.6654 161.11 67.9298C160.71 68.1892 160.369 68.5299 160.11 68.9298C159.835 69.3731 159.699 69.8886 159.72 70.4099C159.696 70.8704 159.803 71.3282 160.03 71.7298C160.345 72.1514 160.771 72.4769 161.26 72.6698C162.078 73.0247 162.924 73.3091 163.79 73.5198C164.87 73.8098 166.27 74.1798 168.01 74.6198C168.53 74.7198 169.25 74.9098 170.17 75.1798C171.145 75.4781 172.071 75.9159 172.92 76.4798C173.859 77.1109 174.659 77.9277 175.27 78.8799C175.979 80.0279 176.327 81.3619 176.27 82.7098C176.28 83.9325 176.028 85.143 175.53 86.2598C175.026 87.3579 174.272 88.3235 173.33 89.0798C172.253 89.9232 171.024 90.5513 169.71 90.9298C168.085 91.3946 166.4 91.617 164.71 91.5899C163.209 91.5917 161.714 91.4035 160.26 91.0299C158.888 90.6828 157.592 90.0825 156.44 89.2598C155.336 88.4511 154.436 87.3966 153.81 86.1798C153.132 84.8014 152.812 83.2744 152.88 81.7398H158.8C158.794 82.545 158.979 83.3402 159.34 84.0599V84.0599Z" fill="white"/>
<path d="M186.79 96.9002C185.444 97.6773 183.902 98.0456 182.35 97.9602C181.78 97.9602 181.22 97.9602 180.66 97.9002L178.96 97.7602V93.2102L180.56 93.3602C181.106 93.4002 181.654 93.4002 182.2 93.3602C182.515 93.3445 182.823 93.2592 183.101 93.1105C183.38 92.9618 183.622 92.7534 183.81 92.5002C184.155 92.0269 184.341 91.4561 184.34 90.8702C184.343 90.4419 184.261 90.0172 184.1 89.6202L177.1 70.7402H182.98L187.53 84.5202H187.61L192.01 70.7402H197.73L189.28 93.4302C188.844 94.824 187.971 96.0405 186.79 96.9002V96.9002Z" fill="white"/>
<path d="M203.81 85.9099C204.058 86.3021 204.381 86.6419 204.76 86.9099C205.171 87.189 205.628 87.3922 206.11 87.5099C206.623 87.6394 207.151 87.7033 207.68 87.6999C208.094 87.699 208.506 87.6555 208.91 87.5699C209.319 87.4844 209.713 87.3395 210.08 87.1399C210.428 86.9523 210.726 86.685 210.95 86.3599C211.202 86.0005 211.328 85.5683 211.31 85.1299C211.31 84.2999 210.75 83.6799 209.65 83.2699C208.146 82.742 206.605 82.3242 205.04 82.0199C204.23 81.8399 203.45 81.6199 202.68 81.3799C201.969 81.1435 201.296 80.8067 200.68 80.3799C200.091 79.9932 199.599 79.4767 199.24 78.8699C198.854 78.1882 198.664 77.413 198.69 76.6299C198.644 75.5136 198.907 74.4063 199.45 73.4299C199.936 72.6039 200.624 71.9155 201.45 71.4299C202.319 70.9373 203.266 70.5989 204.25 70.4299C205.302 70.2287 206.37 70.1282 207.44 70.1299C208.508 70.1311 209.573 70.2349 210.62 70.4399C211.589 70.6271 212.517 70.9861 213.36 71.4999C214.166 72.0109 214.849 72.6939 215.36 73.4999C215.926 74.44 216.252 75.5044 216.31 76.5999H211.05C211.063 76.1653 210.958 75.7353 210.747 75.3552C210.536 74.9751 210.226 74.6589 209.85 74.4399C209.052 74.0447 208.17 73.8491 207.28 73.8699C206.946 73.8721 206.612 73.8921 206.28 73.9299C205.937 73.9672 205.601 74.0513 205.28 74.1799C204.988 74.3108 204.728 74.5056 204.52 74.7499C204.299 75.0348 204.189 75.39 204.21 75.7499C204.204 75.9802 204.25 76.2089 204.345 76.4187C204.44 76.6284 204.582 76.8135 204.76 76.9599C205.181 77.3018 205.663 77.5598 206.18 77.7199C206.836 77.9326 207.504 78.1063 208.18 78.2399L210.48 78.7499C211.275 78.9275 212.059 79.1478 212.83 79.4099C213.559 79.64 214.25 79.977 214.88 80.4099C215.471 80.8324 215.962 81.3783 216.32 82.0099C216.702 82.7364 216.888 83.5497 216.86 84.3699C216.916 85.4577 216.678 86.5404 216.171 87.5046C215.665 88.4688 214.908 89.2789 213.98 89.8499C213.082 90.4171 212.085 90.8075 211.04 90.9999C209.934 91.2205 208.808 91.3311 207.68 91.3299C206.528 91.3348 205.378 91.2175 204.25 90.9799C203.189 90.7765 202.172 90.3836 201.25 89.8199C200.307 89.2404 199.529 88.4265 198.993 87.4575C198.456 86.4885 198.18 85.3973 198.19 84.2899H203.42C203.395 84.8559 203.53 85.4176 203.81 85.9099Z" fill="white"/>
<path d="M230.92 70.7798V74.4798H226.87V84.4798C226.793 85.1365 226.96 85.7986 227.34 86.3398C227.882 86.7257 228.55 86.8935 229.21 86.8098C229.506 86.8254 229.803 86.8254 230.1 86.8098C230.375 86.7899 230.649 86.7531 230.92 86.6998V90.9798C230.404 91.0648 229.883 91.1149 229.36 91.1298C228.79 91.1298 228.24 91.1298 227.69 91.1298C226.877 91.1313 226.065 91.0745 225.26 90.9598C224.558 90.8532 223.881 90.6229 223.26 90.2798C222.676 89.936 222.198 89.4377 221.88 88.8398C221.509 88.0746 221.334 87.2294 221.37 86.3798V74.4798H218.03V70.7798H221.37V64.7798H226.9V70.7798H230.92Z" fill="white"/>
<path d="M239.49 86.0801C240.399 86.7959 241.506 87.2153 242.662 87.2815C243.817 87.3476 244.965 87.0574 245.95 86.4501C246.629 86.0437 247.15 85.42 247.43 84.6801H252.3C251.744 86.7727 250.474 88.6051 248.71 89.8601C246.957 90.9373 244.926 91.4762 242.87 91.4101C241.409 91.4317 239.957 91.1773 238.59 90.6601C237.366 90.1842 236.263 89.4431 235.36 88.4901C234.476 87.5226 233.795 86.3866 233.36 85.1501C232.867 83.7743 232.623 82.3215 232.64 80.8601C232.625 79.4264 232.876 78.0024 233.38 76.6601C233.843 75.4053 234.557 74.2584 235.48 73.2901C236.402 72.3335 237.508 71.5718 238.73 71.0501C240.053 70.4941 241.475 70.215 242.91 70.2301C244.463 70.1906 246.001 70.534 247.39 71.2301C248.628 71.8624 249.703 72.7728 250.53 73.8901C251.355 75.0407 251.956 76.3368 252.3 77.7101C252.663 79.1739 252.795 80.6856 252.69 82.1901H238.12C238.064 83.614 238.554 85.0055 239.49 86.0801V86.0801ZM245.74 75.4901C245.345 75.1066 244.874 74.8112 244.357 74.6233C243.84 74.4354 243.289 74.3593 242.74 74.4001C241.981 74.3737 241.227 74.5279 240.54 74.8501C239.998 75.1141 239.521 75.4929 239.14 75.9601C238.802 76.3728 238.551 76.8488 238.4 77.3601C238.265 77.7892 238.178 78.2319 238.14 78.6801H247.14C246.976 77.5081 246.492 76.4041 245.74 75.4901V75.4901Z" fill="white"/>
<path d="M261.29 70.7802V73.5002H261.42C262.099 72.5052 262.999 71.6805 264.05 71.0902C265.129 70.5043 266.342 70.208 267.57 70.2302C268.77 70.2169 269.959 70.4696 271.05 70.9702C272.142 71.5178 272.995 72.4462 273.45 73.5802C274.096 72.6489 274.922 71.8566 275.88 71.2502C276.966 70.5613 278.234 70.2131 279.52 70.2502C280.533 70.2374 281.543 70.3687 282.52 70.6402C283.383 70.877 284.183 71.3041 284.86 71.8902C285.537 72.506 286.058 73.2737 286.38 74.1302C286.765 75.1971 286.948 76.3263 286.92 77.4602V90.9302H281.39V79.5002C281.39 78.8302 281.39 78.1902 281.31 77.5902C281.274 77.0507 281.131 76.5238 280.89 76.0402C280.665 75.5984 280.318 75.2305 279.89 74.9802C279.317 74.6926 278.68 74.5582 278.04 74.5902C277.383 74.5613 276.732 74.7171 276.16 75.0402C275.69 75.3281 275.301 75.7307 275.03 76.2102C274.743 76.7165 274.556 77.2733 274.48 77.8502C274.391 78.4628 274.348 79.0811 274.35 79.7002V90.9102H268.82V79.6202C268.82 79.0202 268.82 78.4302 268.82 77.8502C268.797 77.296 268.686 76.749 268.49 76.2302C268.29 75.738 267.94 75.3215 267.49 75.0402C266.88 74.7011 266.186 74.5449 265.49 74.5902C265.15 74.6074 264.814 74.6679 264.49 74.7702C264.033 74.9034 263.608 75.1279 263.24 75.4302C262.806 75.8159 262.464 76.2944 262.24 76.8302C261.923 77.5892 261.776 78.4084 261.81 79.2302V90.9102H256.28V70.7802H261.29Z" fill="white"/>
<path d="M291.73 73.74C292.289 72.8922 293.035 72.184 293.91 71.67C294.843 71.1396 295.857 70.7648 296.91 70.56C298.007 70.3404 299.122 70.2298 300.24 70.23C301.267 70.2347 302.293 70.3082 303.31 70.45C304.299 70.5749 305.262 70.8586 306.16 71.29C306.991 71.6859 307.712 72.28 308.26 73.02C308.841 73.8871 309.128 74.9175 309.08 75.96V86.43C309.078 87.3022 309.128 88.1738 309.23 89.04C309.28 89.6951 309.467 90.3323 309.78 90.91H304.17C304.064 90.5828 303.981 90.2487 303.92 89.91C303.852 89.58 303.805 89.246 303.78 88.91C302.926 89.8046 301.854 90.4627 300.67 90.82C299.483 91.1781 298.25 91.36 297.01 91.36C296.102 91.3703 295.196 91.2525 294.32 91.01C293.527 90.7996 292.785 90.4286 292.14 89.92C291.511 89.4228 291.01 88.7814 290.68 88.05C290.309 87.2064 290.128 86.2914 290.15 85.37C290.111 84.3934 290.321 83.4229 290.76 82.55C291.133 81.8451 291.663 81.2359 292.31 80.77C292.975 80.3156 293.712 79.9775 294.49 79.77C295.307 79.5527 296.135 79.3791 296.97 79.25C297.8 79.12 298.61 79.01 299.42 78.93C300.142 78.8719 300.858 78.7548 301.56 78.58C302.099 78.4684 302.605 78.2358 303.04 77.9C303.223 77.7398 303.365 77.5382 303.453 77.312C303.542 77.0859 303.575 76.8417 303.55 76.6C303.571 76.1101 303.471 75.6225 303.26 75.18C303.05 74.8614 302.761 74.6029 302.42 74.43C302.073 74.2277 301.689 74.0952 301.29 74.04C300.833 73.9748 300.372 73.9414 299.91 73.94C298.997 73.8912 298.093 74.1365 297.33 74.64C296.995 74.9317 296.724 75.2909 296.536 75.694C296.348 76.0972 296.248 76.5353 296.24 76.98H290.72C290.755 75.8281 291.104 74.7077 291.73 73.74V73.74ZM302.65 81.54C302.281 81.6648 301.903 81.765 301.52 81.84C301.12 81.91 300.7 81.98 300.26 82.03C299.82 82.08 299.37 82.15 298.93 82.23C298.517 82.3038 298.109 82.4074 297.71 82.54C297.331 82.654 296.973 82.8297 296.65 83.06C296.354 83.2869 296.109 83.573 295.93 83.9C295.738 84.2985 295.645 84.7377 295.66 85.18C295.646 85.6125 295.739 86.0419 295.93 86.43C296.106 86.7545 296.36 87.0296 296.67 87.23C297.007 87.4287 297.376 87.5674 297.76 87.64C298.186 87.7171 298.618 87.754 299.05 87.75C299.927 87.7984 300.8 87.612 301.58 87.21C302.127 86.9 302.582 86.4517 302.9 85.91C303.175 85.436 303.355 84.9129 303.43 84.37C303.485 83.9554 303.519 83.5381 303.53 83.12V81.06C303.274 81.2799 302.974 81.4434 302.65 81.54V81.54Z" fill="white"/>
<path d="M323.89 70.7798V74.4798H319.84V84.4798C319.763 85.1365 319.93 85.7986 320.31 86.3398C320.852 86.7257 321.52 86.8935 322.18 86.8098C322.476 86.8254 322.774 86.8254 323.07 86.8098C323.345 86.7899 323.619 86.7531 323.89 86.6998V90.9798C323.374 91.0643 322.853 91.1144 322.33 91.1298C321.76 91.1298 321.21 91.1298 320.66 91.1298C319.847 91.1313 319.035 91.0745 318.23 90.9598C317.528 90.8532 316.851 90.6229 316.23 90.2798C315.646 89.936 315.169 89.4377 314.85 88.8398C314.479 88.0746 314.304 87.2294 314.34 86.3798V74.4798H311V70.7798H314.34V64.7798H319.87V70.7798H323.89Z" fill="white"/>
<path d="M326.9 67.6599V63.1099H332.42V67.6599H326.9ZM332.43 70.7799V90.9099H326.9V70.7799H332.43Z" fill="white"/>
<path d="M346.3 74.4301C345.517 74.403 344.743 74.6121 344.08 75.0301C343.488 75.4405 342.99 75.9723 342.62 76.5901C342.244 77.2431 341.973 77.952 341.82 78.6901C341.67 79.441 341.593 80.2045 341.59 80.9701C341.593 81.7159 341.67 82.4595 341.82 83.1901C341.969 83.8918 342.226 84.5663 342.58 85.1901C342.929 85.795 343.415 86.309 344 86.6901C344.656 87.0977 345.418 87.3029 346.19 87.2801C346.748 87.3185 347.307 87.2395 347.833 87.0484C348.358 86.8572 348.838 86.558 349.24 86.1701C349.996 85.3392 350.466 84.2877 350.58 83.1701H355.92C355.719 85.5364 354.599 87.7298 352.8 89.2801C350.926 90.7394 348.593 91.4838 346.22 91.3801C344.805 91.3956 343.4 91.141 342.08 90.6301C340.872 90.1546 339.778 89.4287 338.87 88.5001C337.964 87.571 337.259 86.4645 336.8 85.2501C336.297 83.9284 336.046 82.5242 336.06 81.1101C336.049 79.6328 336.278 78.1634 336.74 76.7601C337.165 75.4829 337.845 74.3056 338.74 73.3001C339.641 72.3169 340.742 71.5393 341.97 71.0201C343.353 70.4556 344.836 70.1767 346.33 70.2001C347.496 70.1985 348.657 70.3566 349.78 70.6701C350.857 70.9603 351.873 71.4413 352.78 72.0901C353.643 72.7295 354.364 73.5396 354.9 74.4701C355.465 75.507 355.783 76.6602 355.83 77.8401H350.42C350.383 77.3421 350.246 76.8567 350.016 76.413C349.787 75.9694 349.471 75.5766 349.086 75.2582C348.701 74.9397 348.256 74.7023 347.777 74.56C347.299 74.4177 346.796 74.3735 346.3 74.4301V74.4301Z" fill="white"/>
<path d="M159.51 124.95C159.831 125.574 160.293 126.115 160.86 126.53C161.462 126.953 162.142 127.256 162.86 127.42C163.624 127.618 164.411 127.715 165.2 127.71C165.785 127.708 166.37 127.665 166.95 127.58C167.557 127.494 168.147 127.315 168.7 127.05C169.231 126.8 169.699 126.435 170.07 125.98C170.444 125.483 170.635 124.872 170.61 124.25C170.624 123.911 170.567 123.574 170.443 123.259C170.319 122.944 170.131 122.658 169.89 122.42C169.344 121.908 168.701 121.511 168 121.25C167.137 120.915 166.251 120.641 165.35 120.43C164.35 120.2 163.35 119.94 162.35 119.65C161.331 119.377 160.329 119.043 159.35 118.65C158.4 118.295 157.507 117.803 156.7 117.19C155.853 116.554 155.174 115.722 154.719 114.766C154.265 113.81 154.049 112.758 154.09 111.7C154.059 110.4 154.376 109.115 155.01 107.98C155.609 106.942 156.424 106.045 157.4 105.35C158.415 104.637 159.549 104.112 160.75 103.8C161.968 103.464 163.226 103.292 164.49 103.29C165.898 103.283 167.302 103.447 168.67 103.78C169.947 104.076 171.158 104.608 172.24 105.35C173.271 106.072 174.118 107.028 174.71 108.14C175.35 109.409 175.663 110.819 175.62 112.24H169.71C169.683 111.523 169.502 110.82 169.18 110.18C168.901 109.657 168.491 109.216 167.99 108.9C167.474 108.571 166.901 108.343 166.3 108.23C165.615 108.097 164.918 108.033 164.22 108.04C163.722 108.038 163.226 108.092 162.74 108.2C162.26 108.294 161.802 108.477 161.39 108.74C160.992 109.002 160.652 109.342 160.39 109.74C160.116 110.184 159.98 110.699 160 111.22C159.982 111.683 160.089 112.142 160.31 112.55C160.625 112.968 161.051 113.29 161.54 113.48C162.357 113.839 163.203 114.126 164.07 114.34L168.3 115.43C168.81 115.53 169.53 115.72 170.46 115.99C171.432 116.292 172.354 116.733 173.2 117.3C174.139 117.929 174.942 118.742 175.56 119.69C176.265 120.843 176.613 122.179 176.56 123.53C176.569 124.749 176.316 125.956 175.82 127.07C175.319 128.17 174.565 129.136 173.62 129.89C172.544 130.735 171.315 131.363 170 131.74C168.375 132.205 166.69 132.427 165 132.4C163.495 132.407 161.996 132.219 160.54 131.84C159.168 131.491 157.873 130.891 156.72 130.07C155.616 129.261 154.716 128.207 154.09 126.99C153.41 125.612 153.09 124.085 153.16 122.55H159.08C159.031 123.373 159.178 124.195 159.51 124.95V124.95Z" fill="white"/>
<path d="M190.58 111.67V115.37H186.53V125.37C186.431 125.695 186.423 126.04 186.506 126.369C186.589 126.698 186.76 126.998 187 127.238C187.24 127.477 187.541 127.647 187.871 127.728C188.2 127.81 188.546 127.8 188.87 127.7C189.17 127.715 189.47 127.715 189.77 127.7C190.042 127.679 190.312 127.643 190.58 127.59V131.87C190.067 131.954 189.549 132.007 189.03 132.03C188.45 132.03 187.9 132.03 187.35 132.03C186.536 132.033 185.724 131.973 184.92 131.85C184.217 131.748 183.539 131.517 182.92 131.17C182.336 130.826 181.859 130.328 181.54 129.73C181.173 128.967 181.001 128.125 181.04 127.28V115.37H177.69V111.67H181.04V105.67H186.56V111.67H190.58Z" fill="white"/>
<path d="M198.95 111.67V115.43H199.03C199.292 114.805 199.646 114.222 200.08 113.7C200.518 113.172 201.03 112.711 201.6 112.33C202.164 111.951 202.776 111.648 203.42 111.43C204.067 111.223 204.741 111.119 205.42 111.12C205.827 111.126 206.231 111.19 206.62 111.31V116.43C206.36 116.43 206.05 116.33 205.69 116.29C205.33 116.25 204.97 116.24 204.64 116.24C203.757 116.21 202.878 116.381 202.07 116.74C201.4 117.055 200.816 117.529 200.37 118.12C199.94 118.722 199.631 119.401 199.46 120.12C199.275 120.95 199.184 121.799 199.19 122.65V131.72H193.66V111.67H198.95Z" fill="white"/>
<path d="M209.11 114.63C209.673 113.785 210.422 113.08 211.3 112.57C212.229 112.032 213.244 111.656 214.3 111.46C215.397 111.241 216.512 111.131 217.63 111.13C218.66 111.131 219.689 111.201 220.71 111.34C221.696 111.465 222.655 111.748 223.55 112.18C224.385 112.57 225.107 113.166 225.65 113.91C226.235 114.775 226.523 115.807 226.47 116.85V127.32C226.466 128.192 226.52 129.064 226.63 129.93C226.676 130.584 226.86 131.222 227.17 131.8H221.56C221.46 131.49 221.38 131.17 221.31 130.85C221.246 130.52 221.203 130.186 221.18 129.85C220.32 130.743 219.246 131.4 218.06 131.76C216.875 132.127 215.641 132.313 214.4 132.31C213.492 132.315 212.587 132.197 211.71 131.96C210.92 131.74 210.18 131.37 209.53 130.87C208.906 130.368 208.406 129.728 208.07 129C207.702 128.152 207.525 127.234 207.55 126.31C207.513 125.335 207.72 124.366 208.15 123.49C208.521 122.784 209.056 122.177 209.71 121.72C210.374 121.264 211.111 120.925 211.89 120.72C212.704 120.503 213.528 120.329 214.36 120.2C215.19 120.07 216.01 119.96 216.81 119.89C217.534 119.822 218.252 119.705 218.96 119.54C219.495 119.417 219.999 119.186 220.44 118.86C220.624 118.699 220.765 118.495 220.853 118.267C220.94 118.039 220.97 117.792 220.94 117.55C220.961 117.06 220.861 116.572 220.65 116.13C220.469 115.791 220.2 115.507 219.87 115.31C219.521 115.11 219.138 114.978 218.74 114.92C218.283 114.858 217.822 114.828 217.36 114.83C216.45 114.776 215.547 115.022 214.79 115.53C214.452 115.818 214.18 116.175 213.992 116.576C213.804 116.978 213.704 117.416 213.7 117.86H208.17C208.192 116.719 208.517 115.604 209.11 114.63ZM220.04 122.43C219.669 122.547 219.292 122.643 218.91 122.72C218.5 122.8 218.08 122.86 217.64 122.91C217.2 122.96 216.76 123.03 216.32 123.11C215.904 123.187 215.493 123.291 215.09 123.42C214.714 123.539 214.36 123.718 214.04 123.95C213.741 124.17 213.496 124.453 213.32 124.78C213.126 125.182 213.034 125.624 213.05 126.07C213.035 126.499 213.128 126.925 213.32 127.31C213.488 127.64 213.744 127.917 214.06 128.11C214.393 128.316 214.763 128.456 215.15 128.52C215.572 128.601 216.001 128.641 216.43 128.64C217.311 128.691 218.189 128.5 218.97 128.09C219.512 127.774 219.966 127.327 220.29 126.79C220.562 126.315 220.739 125.792 220.81 125.25C220.871 124.836 220.904 124.418 220.91 124V121.94C220.657 122.161 220.361 122.328 220.04 122.43V122.43Z" fill="white"/>
<path d="M241.78 111.67V115.37H237.73V125.37C237.631 125.695 237.623 126.04 237.706 126.369C237.789 126.698 237.959 126.998 238.2 127.238C238.44 127.477 238.741 127.647 239.071 127.728C239.4 127.81 239.746 127.8 240.07 127.7C240.366 127.716 240.663 127.716 240.96 127.7C241.235 127.68 241.509 127.643 241.78 127.59V131.87C241.263 131.953 240.743 132.007 240.22 132.03C239.65 132.03 239.09 132.03 238.55 132.03C237.736 132.033 236.924 131.973 236.12 131.85C235.417 131.749 234.739 131.519 234.12 131.17C233.536 130.826 233.059 130.328 232.74 129.73C232.369 128.968 232.194 128.126 232.23 127.28V115.37H228.88V111.67H232.23V105.67H237.76V111.67H241.78Z" fill="white"/>
<path d="M250.35 126.97C251.259 127.686 252.366 128.105 253.522 128.171C254.677 128.237 255.825 127.947 256.81 127.34C257.491 126.936 258.013 126.311 258.29 125.57H263.16C262.607 127.664 261.337 129.497 259.57 130.75C257.818 131.83 255.787 132.372 253.73 132.31C252.268 132.328 250.816 132.07 249.45 131.55C248.233 131.085 247.13 130.362 246.22 129.43C245.318 128.463 244.62 127.323 244.17 126.08C243.678 124.707 243.434 123.258 243.45 121.8C243.439 120.363 243.69 118.937 244.19 117.59C244.653 116.339 245.368 115.195 246.29 114.231C247.212 113.266 248.321 112.5 249.55 111.98C250.873 111.427 252.296 111.151 253.73 111.17C255.282 111.135 256.82 111.478 258.21 112.17C259.449 112.801 260.522 113.716 261.34 114.84C262.173 115.984 262.777 117.277 263.12 118.65C263.483 120.114 263.615 121.625 263.51 123.13H248.98C248.932 124.537 249.422 125.911 250.35 126.97ZM256.59 116.43C256.195 116.046 255.724 115.751 255.207 115.563C254.69 115.375 254.139 115.299 253.59 115.34C252.831 115.312 252.077 115.467 251.39 115.79C250.848 116.054 250.371 116.433 249.99 116.9C249.652 117.313 249.401 117.789 249.25 118.3C249.116 118.733 249.029 119.179 248.99 119.63H257.99C257.833 118.453 257.348 117.344 256.59 116.43V116.43Z" fill="white"/>
<path d="M285.72 133.28C285.485 134.346 284.998 135.34 284.3 136.18C283.44 137.177 282.357 137.958 281.14 138.46C279.381 139.15 277.498 139.466 275.61 139.39C274.599 139.387 273.591 139.263 272.61 139.02C271.619 138.79 270.671 138.405 269.8 137.88C268.967 137.369 268.251 136.687 267.7 135.88C267.12 135.005 266.791 133.988 266.75 132.94H272.24C272.32 133.388 272.497 133.813 272.757 134.186C273.018 134.559 273.357 134.871 273.75 135.1C274.557 135.511 275.454 135.717 276.36 135.7C276.999 135.757 277.642 135.66 278.236 135.416C278.829 135.173 279.355 134.79 279.77 134.3C280.502 133.271 280.855 132.02 280.77 130.76V128.11H280.69C280.122 129.156 279.226 129.985 278.14 130.47C277.048 130.972 275.861 131.231 274.66 131.23C273.319 131.264 271.989 130.99 270.77 130.43C269.713 129.927 268.791 129.179 268.08 128.25C267.36 127.284 266.837 126.187 266.54 125.02C266.211 123.739 266.046 122.422 266.05 121.1C266.046 119.828 266.239 118.563 266.62 117.35C266.974 116.193 267.533 115.109 268.27 114.15C269.002 113.228 269.927 112.477 270.98 111.95C272.139 111.392 273.414 111.115 274.7 111.14C275.902 111.111 277.094 111.364 278.18 111.88C279.248 112.439 280.122 113.307 280.69 114.37H280.77V111.68H286.03V130.53C286.021 131.455 285.917 132.376 285.72 133.28ZM278.14 126.58C278.722 126.285 279.228 125.861 279.62 125.34C280.019 124.809 280.317 124.209 280.5 123.57C280.698 122.891 280.796 122.187 280.79 121.48C280.792 120.691 280.715 119.904 280.56 119.13C280.421 118.422 280.157 117.745 279.78 117.13C279.421 116.563 278.926 116.095 278.34 115.77C277.643 115.407 276.865 115.231 276.08 115.26C275.384 115.24 274.694 115.402 274.08 115.73C273.519 116.039 273.036 116.474 272.67 117C272.289 117.555 272.014 118.175 271.86 118.83C271.685 119.537 271.598 120.262 271.6 120.99C271.599 121.716 271.672 122.439 271.82 123.15C271.949 123.829 272.2 124.479 272.56 125.07C272.908 125.638 273.379 126.12 273.94 126.48C274.587 126.861 275.33 127.048 276.08 127.02C276.793 127.048 277.501 126.897 278.14 126.58V126.58Z" fill="white"/>
<path d="M290.64 108.56V104H296.17V108.56H290.64ZM296.17 111.67V131.8H290.64V111.67H296.17Z" fill="white"/>
<path d="M306.42 126.97C307.329 127.686 308.436 128.105 309.592 128.171C310.747 128.238 311.895 127.947 312.88 127.34C313.563 126.939 314.086 126.314 314.36 125.57H319.23C318.681 127.663 317.413 129.496 315.65 130.75C313.897 131.829 311.867 132.371 309.81 132.31C308.345 132.328 306.889 132.07 305.52 131.55C304.313 131.082 303.222 130.359 302.32 129.43C301.435 128.459 300.755 127.32 300.32 126.08C299.828 124.707 299.584 123.258 299.6 121.8C299.584 120.363 299.835 118.936 300.34 117.59C300.803 116.335 301.517 115.188 302.44 114.22C303.365 113.267 304.47 112.505 305.69 111.98C307.017 111.427 308.443 111.152 309.88 111.17C311.432 111.138 312.969 111.481 314.36 112.17C315.597 112.804 316.669 113.718 317.49 114.84C318.324 115.981 318.926 117.276 319.26 118.65C319.623 120.114 319.755 121.626 319.65 123.13H305.09C305.031 124.532 305.506 125.905 306.42 126.97V126.97ZM312.7 116.43C312.305 116.048 311.833 115.753 311.316 115.565C310.799 115.377 310.248 115.301 309.7 115.34C308.941 115.314 308.187 115.469 307.5 115.79C306.96 116.057 306.483 116.435 306.1 116.9C305.762 117.313 305.511 117.789 305.36 118.3C305.229 118.733 305.145 119.179 305.11 119.63H314.11C313.945 118.453 313.457 117.346 312.7 116.43V116.43Z" fill="white"/>
<path d="M327.42 126.8C327.669 127.221 328.011 127.58 328.42 127.85C328.827 128.129 329.281 128.332 329.76 128.45C330.276 128.583 330.807 128.65 331.34 128.65C331.75 128.646 332.159 128.599 332.56 128.51C332.97 128.428 333.365 128.283 333.73 128.08C334.078 127.89 334.379 127.623 334.61 127.3C334.856 126.942 334.979 126.514 334.96 126.08C334.96 125.25 334.41 124.62 333.3 124.21C331.796 123.682 330.255 123.264 328.69 122.96C327.89 122.78 327.1 122.57 326.33 122.32C325.621 122.078 324.949 121.741 324.33 121.32C323.743 120.927 323.251 120.407 322.89 119.8C322.512 119.115 322.325 118.341 322.35 117.56C322.304 116.448 322.564 115.345 323.1 114.37C323.587 113.545 324.275 112.856 325.1 112.37C325.968 111.877 326.916 111.539 327.9 111.37C328.955 111.172 330.026 111.075 331.1 111.08C332.164 111.076 333.226 111.18 334.27 111.39C335.237 111.578 336.164 111.933 337.01 112.44C337.822 112.943 338.506 113.628 339.01 114.44C339.599 115.369 339.943 116.432 340.01 117.53H334.76C334.77 117.094 334.663 116.664 334.451 116.284C334.238 115.904 333.927 115.588 333.55 115.37C332.752 114.977 331.869 114.785 330.98 114.81C330.646 114.808 330.312 114.825 329.98 114.86C329.635 114.895 329.298 114.983 328.98 115.12C328.691 115.247 328.434 115.439 328.23 115.68C328.005 115.963 327.892 116.319 327.91 116.68C327.905 116.91 327.951 117.138 328.047 117.348C328.142 117.557 328.283 117.742 328.46 117.89C328.879 118.233 329.361 118.492 329.88 118.65C330.535 118.867 331.203 119.044 331.88 119.18C332.63 119.33 333.39 119.5 334.17 119.68C334.968 119.857 335.756 120.078 336.53 120.34C337.241 120.576 337.914 120.913 338.53 121.34C339.122 121.756 339.614 122.299 339.97 122.93C340.359 123.654 340.549 124.468 340.52 125.29C340.572 126.378 340.333 127.461 339.827 128.426C339.32 129.392 338.565 130.204 337.64 130.78C336.738 131.339 335.742 131.729 334.7 131.93C333.59 132.15 332.461 132.26 331.33 132.26C330.178 132.26 329.028 132.142 327.9 131.91C326.84 131.696 325.825 131.3 324.9 130.74C323.965 130.155 323.198 129.339 322.672 128.37C322.147 127.401 321.88 126.312 321.9 125.21H327.15C327.099 125.754 327.192 126.303 327.42 126.8V126.8Z" fill="white"/>
</svg>
