<?xml version="1.0" standalone="yes"?><svg width="446" height="210" viewBox="0 0 446 210" fill="none" xmlns="http://www.w3.org/2000/svg">
<path d="M424.31 121.519C424.402 121.591 424.507 121.644 424.62 121.673C424.732 121.702 424.85 121.707 424.965 121.688H437.549C438.111 121.686 438.672 121.642 439.228 121.558C439.958 121.468 440.651 121.184 441.235 120.737C441.819 120.289 442.272 119.694 442.549 119.012C443.029 117.837 443.386 116.614 443.612 115.365C443.689 115.038 443.612 114.576 444.002 114.47C444.568 114.345 445.154 114.345 445.72 114.47C445.869 114.499 445.917 114.691 445.917 114.85C445.917 115.081 445.917 115.312 445.917 115.543C445.739 119.157 445.585 122.761 445.369 126.379C445.272 127.991 445.46 127.741 443.968 127.746C436.121 127.746 428.271 127.746 420.417 127.746C418.974 127.746 419.238 127.818 419.108 126.523C419.039 125.567 419.239 124.61 419.686 123.761C422.52 117.646 426.548 112.386 431.211 107.575C432.655 106.078 434.156 104.639 435.47 103.023C436.976 101.175 438.15 99.1731 438.444 96.7672C438.707 94.8896 438.483 92.9759 437.794 91.2096C436.832 88.8036 434.969 87.5333 432.4 87.3264C431.247 87.2055 430.083 87.3169 428.974 87.6541C427.866 87.9913 426.836 88.5475 425.946 89.2896C425.063 89.9895 424.419 90.9462 424.103 92.0276C423.858 92.8889 424.055 93.245 424.926 93.2113C428.439 93.0717 429.739 96.8538 428.723 99.4233C427.708 101.993 424.286 102.792 422.058 100.896C421.479 100.412 421.004 99.8164 420.659 99.1453C420.314 98.4742 420.108 97.7409 420.051 96.9885C419.695 92.9129 421.221 89.6024 424.339 87.0329C427.458 84.4634 431.201 83.7224 435.186 84.2084C436.681 84.3916 438.14 84.7953 439.517 85.4065C446.976 88.7026 447.178 97.0415 444.223 101.459C443.071 103.096 441.698 104.567 440.143 105.828C438.439 107.271 436.649 108.609 434.849 109.947C431.755 112.256 428.848 114.759 426.548 117.906C425.702 119.045 424.954 120.254 424.31 121.519Z" fill="white"/>
<path d="M335.492 104.904C335.831 104.621 336.08 104.244 336.209 103.821C337.178 101.89 338.513 100.166 340.14 98.7446C342.773 96.5504 345.766 96.0211 349.024 96.8873C350.117 97.1574 351.127 97.6912 351.966 98.442C352.805 99.1927 353.447 100.138 353.836 101.194C354.488 102.881 354.802 104.679 354.76 106.487C354.76 111.331 354.76 116.179 354.76 121.033C354.738 121.609 354.773 122.186 354.866 122.756C355.111 123.968 355.525 124.392 356.738 124.613C356.927 124.648 357.118 124.669 357.311 124.675C358.701 124.772 358.716 124.772 358.701 126.119C358.677 127.981 358.942 127.688 357.113 127.697C353.148 127.697 349.183 127.697 345.222 127.697C344.226 127.697 344.202 127.697 344.216 126.682C344.216 126.076 343.966 125.34 344.342 124.887C344.717 124.435 345.501 124.777 346.093 124.68C346.469 124.618 346.854 124.579 347.229 124.507C347.599 124.454 347.942 124.28 348.203 124.012C348.464 123.744 348.629 123.397 348.673 123.025C348.76 122.494 348.797 121.956 348.783 121.418C348.783 116.535 348.783 111.65 348.783 106.761C348.8 105.837 348.704 104.915 348.499 104.014C347.826 101.247 345.434 99.9524 342.725 100.895C341.671 101.281 340.732 101.925 339.991 102.767C338.242 104.732 337.043 107.124 336.517 109.701C336.205 111.052 336.053 112.434 336.064 113.82C336.064 116.279 336.064 118.743 336.064 121.206C336.057 121.706 336.096 122.205 336.18 122.698C336.421 123.949 336.863 124.435 338.129 124.623C338.779 124.692 339.434 124.717 340.087 124.7C340.463 124.7 340.67 124.834 340.646 125.238C340.643 125.277 340.643 125.315 340.646 125.354C340.809 127.712 340.809 127.712 338.442 127.712H326.758C325.819 127.712 325.819 127.712 325.795 126.773C325.793 126.735 325.793 126.696 325.795 126.658C325.848 126.052 325.55 125.32 325.935 124.873C326.32 124.425 327.027 124.738 327.59 124.695C329.313 124.555 329.919 123.968 329.996 122.26C330.025 121.841 330.03 121.418 330.03 120.994C330.03 115.259 330.03 109.525 330.03 103.792C330.041 103.216 330.019 102.639 329.962 102.065C329.823 100.891 329.284 100.352 328.119 100.207C327.546 100.146 326.969 100.12 326.392 100.13C325.959 100.13 325.757 99.9812 325.771 99.5289C325.771 98.9515 325.805 98.3693 325.771 97.7967C325.737 97.2241 326.007 97.1327 326.454 97.099C327.758 97.0027 329.063 96.8921 330.362 96.7958C331.974 96.6707 333.586 96.56 335.198 96.4397C336.04 96.3772 336.074 96.3772 336.007 97.1904C335.824 99.4519 335.607 101.709 335.405 103.97C335.323 104.282 335.353 104.613 335.492 104.904V104.904Z" fill="white"/>
<path d="M298.593 100.295C297.345 98.9151 295.818 97.8173 294.113 97.0747C292.407 96.332 290.563 95.9616 288.703 95.9881C285.253 96.0315 282.207 97.4317 279.652 99.9098C273.227 106.165 272.76 117.184 278.607 123.969C283.901 130.104 292.592 130.397 298.294 124.633C304.651 118.19 304.8 106.853 298.593 100.295ZM295.099 120.596C294.722 121.77 294.127 122.864 293.347 123.82C292.836 124.45 292.195 124.963 291.468 125.324C290.741 125.686 289.944 125.886 289.133 125.913C288.321 125.939 287.514 125.791 286.765 125.478C286.016 125.165 285.342 124.695 284.791 124.099C283.232 122.492 282.472 120.475 282.034 118.349C281.139 114.081 281.191 109.669 282.188 105.424C282.477 104.183 282.965 102.997 283.631 101.912C286.066 97.9369 290.999 97.7781 293.67 101.584C294.769 103.255 295.491 105.145 295.787 107.123C296.128 108.9 296.289 110.707 296.268 112.517C296.318 115.255 295.923 117.984 295.099 120.596V120.596Z" fill="white"/>
<path d="M413.619 90.9585H401.179C400.257 90.9497 399.335 91.0254 398.426 91.1846C397.509 91.3311 396.644 91.7082 395.913 92.2805C395.181 92.8528 394.607 93.6017 394.245 94.4567C393.618 95.9446 393.144 97.4923 392.83 99.076C392.743 99.4465 392.782 99.9566 392.44 100.106C391.886 100.279 391.294 100.294 390.732 100.149C390.39 100.096 390.491 99.7208 390.51 99.4658C390.597 98.2387 390.683 97.0117 390.789 95.7847C391.068 92.487 391.351 89.1925 391.636 85.9013C391.718 84.9822 391.718 84.9678 392.642 84.9678H417.574C418.46 84.9678 418.397 84.9918 418.494 85.8435C418.604 86.8076 418.52 87.784 418.247 88.7153C417.974 89.6466 417.518 90.514 416.905 91.2664C414.134 94.9602 411.753 98.9321 409.803 103.118C407.752 107.359 406.701 112.015 406.732 116.726C406.732 118.222 406.891 119.719 407.026 121.21C407.147 122.398 407.189 123.592 407.151 124.786C407.117 125.438 406.969 126.08 406.713 126.681C406.505 127.223 406.144 127.694 405.675 128.035C405.205 128.377 404.646 128.575 404.066 128.606C403.472 128.702 402.863 128.62 402.316 128.37C401.768 128.12 401.307 127.713 400.991 127.201C400.362 126.186 400.007 125.026 399.962 123.833C399.706 120.522 400.308 117.327 401.275 114.18C402.815 109.147 405.188 104.499 407.834 99.9758C409.403 97.2812 411.097 94.6828 412.858 92.0989C413.075 91.7861 413.277 91.4733 413.619 90.9585Z" fill="white"/>
<path d="M364.42 110.867C364.42 107.633 364.42 104.401 364.42 101.171C364.42 100.29 364.42 100.286 363.53 100.276C362.567 100.276 361.605 100.276 360.642 100.276C359.68 100.276 359.68 100.276 359.656 99.2414C359.651 99.1645 359.651 99.0873 359.656 99.0104C359.68 98.0481 359.435 97.9855 360.71 97.615C361.922 97.2823 363.037 96.6664 363.964 95.8181C364.891 94.9698 365.603 93.9133 366.042 92.7358C366.757 90.8652 367.219 88.9069 367.413 86.9135C367.49 86.3072 367.572 85.6961 367.615 85.0802C367.644 84.7001 367.808 84.575 368.188 84.5365C370.536 84.3007 370.541 84.3007 370.541 86.6392C370.541 89.6803 370.541 92.7198 370.541 95.7576C370.541 97.2349 370.426 97.0905 371.932 97.0953C374.126 97.0953 376.321 97.0953 378.51 97.0953C379.376 97.0953 379.381 97.1194 379.396 98.0047C379.396 98.4859 379.362 99.0104 379.396 99.506C379.458 100.141 379.165 100.281 378.592 100.276C376.21 100.276 373.823 100.276 371.436 100.276C370.387 100.276 370.382 100.276 370.382 101.359C370.382 107.133 370.382 112.907 370.382 118.681C370.363 119.681 370.455 120.68 370.657 121.66C371.037 123.324 371.966 124.335 373.284 124.523C374.048 124.667 374.838 124.558 375.534 124.21C376.229 123.862 376.791 123.296 377.134 122.598C377.962 121.154 378.183 119.562 378.385 117.959C378.544 116.699 378.549 116.684 379.8 116.703C381.244 116.728 381.306 116.347 381.176 118.219C381.09 119.989 380.721 121.734 380.084 123.387C378.159 128.165 373.053 130.08 368.433 127.756C366.172 126.621 365.113 124.648 364.641 122.276C364.468 121.369 364.386 120.447 364.396 119.523C364.434 116.636 364.425 113.749 364.42 110.867Z" fill="white"/>
<path d="M317.037 109.759C317.037 113.608 317.037 117.458 317.037 121.307C317.023 121.807 317.047 122.307 317.11 122.803C317.283 123.949 317.745 124.42 318.876 124.632C319.255 124.685 319.638 124.714 320.021 124.719C320.931 124.757 320.931 124.752 320.945 125.705V126.744C320.945 127.707 320.945 127.707 319.901 127.707H309.631C309.4 127.707 309.15 127.707 308.938 127.707C308.298 127.649 307.398 128.015 307.081 127.519C306.648 126.841 306.941 125.883 306.951 125.046C306.951 124.738 307.211 124.719 307.432 124.704C308.005 124.675 308.587 124.704 309.155 124.608C309.6 124.571 310.02 124.381 310.34 124.069C310.661 123.758 310.863 123.344 310.911 122.9C310.994 122.407 311.031 121.908 311.022 121.408C311.022 115.409 311.022 109.407 311.022 103.402C311.031 102.942 310.999 102.481 310.926 102.026C310.695 100.78 310.18 100.299 308.929 100.178C308.277 100.127 307.623 100.109 306.97 100.125C306.523 100.125 306.344 99.9473 306.364 99.5094C306.383 99.0716 306.364 98.7396 306.364 98.3546C306.364 97.1372 306.364 97.1324 307.625 97.041L316.137 96.4251C316.994 96.3625 317.009 96.3577 317.009 97.2816C317.009 101.093 317.009 104.902 317.009 108.71L317.037 109.759Z" fill="white"/>
<path d="M308.484 86.1717C308.488 85.276 308.757 84.4016 309.257 83.6587C309.758 82.9158 310.467 82.3379 311.296 81.9977C312.124 81.6576 313.035 81.5706 313.913 81.7477C314.791 81.9247 315.597 82.3579 316.229 82.9926C316.861 83.6273 317.291 84.435 317.464 85.3137C317.638 86.1924 317.547 87.1028 317.203 87.9299C316.86 88.7571 316.279 89.4639 315.534 89.9611C314.788 90.4583 313.913 90.7237 313.017 90.7237C311.813 90.7198 310.659 90.2384 309.809 89.385C308.959 88.5316 308.483 87.376 308.484 86.1717Z" fill="white"/>
<path d="M269.226 85.3687C268.331 84.8424 267.392 84.3933 266.421 84.0262C263.362 82.9613 260.14 82.4401 256.902 82.4865C254.053 82.4576 251.204 82.4865 248.355 82.4865H239.116C237.109 82.4865 237.109 82.4865 237.133 84.493C237.133 85.4794 237.133 85.4842 238.144 85.4938C239.221 85.4488 240.3 85.5004 241.368 85.6478C242.653 85.8836 243.269 86.4562 243.514 87.7217C243.575 88.0615 243.603 88.4064 243.596 88.7515C243.596 99.6582 243.596 110.552 243.596 121.433C243.601 121.895 243.547 122.356 243.437 122.805C243.352 123.221 243.146 123.604 242.846 123.906C242.546 124.208 242.165 124.415 241.748 124.503C240.959 124.681 240.15 124.754 239.342 124.72C236.974 124.72 236.975 124.72 237.128 127.068C237.131 127.106 237.131 127.145 237.128 127.183C237.128 127.578 237.302 127.742 237.682 127.722C237.913 127.722 238.163 127.722 238.375 127.722H257.547C257.759 127.722 257.927 127.621 257.932 127.39C257.932 126.553 258.225 125.595 257.812 124.907C257.508 124.426 256.594 124.758 255.954 124.729C255.184 124.696 254.414 124.705 253.644 124.729C253.143 124.72 252.645 124.647 252.162 124.513C251.744 124.426 251.362 124.213 251.068 123.902C250.775 123.592 250.584 123.198 250.521 122.776C250.444 122.439 250.401 122.096 250.391 121.751C250.391 117.516 250.391 113.282 250.391 109.048C250.391 108.427 250.636 108.263 251.209 108.273C252.813 108.295 254.43 108.295 256.06 108.273C258.757 108.271 261.441 107.904 264.039 107.181C266.684 106.468 269.127 105.15 271.175 103.331C276.161 98.7119 276.161 89.3962 269.226 85.3687ZM266.628 98.5772C265.747 102.21 263.288 104.13 259.732 104.833C258.254 105.082 256.754 105.184 255.256 105.136C253.947 105.136 252.638 105.136 251.329 105.136C250.367 105.136 250.367 105.136 250.367 104.173C250.367 101.56 250.367 98.9429 250.367 96.3301C250.367 93.9241 250.367 91.4846 250.367 89.0594C250.367 86.3985 251.127 85.5612 253.736 85.4842C255.847 85.3419 257.969 85.4533 260.054 85.8162C264.144 86.692 266.257 88.8958 266.844 93.034C267.129 94.8785 267.055 96.7605 266.628 98.5772V98.5772Z" fill="white"/>
<path d="M167.684 139.548C167.684 140.836 167.173 142.071 166.262 142.981C165.352 143.892 164.117 144.403 162.829 144.403C161.541 144.403 160.306 143.892 159.395 142.981C158.485 142.071 157.973 140.836 157.973 139.548C157.973 138.91 158.099 138.279 158.343 137.69C158.587 137.101 158.944 136.566 159.395 136.115C159.846 135.664 160.381 135.306 160.971 135.062C161.56 134.818 162.191 134.693 162.829 134.693C163.466 134.693 164.098 134.818 164.687 135.062C165.276 135.306 165.811 135.664 166.262 136.115C166.713 136.566 167.071 137.101 167.315 137.69C167.559 138.279 167.684 138.91 167.684 139.548V139.548Z" fill="white"/>
<path d="M92.7548 46.6927C92.7699 45.7375 93.0669 44.808 93.6084 44.0208C94.1499 43.2337 94.9119 42.624 95.7986 42.2683C96.6854 41.9125 97.6574 41.8265 98.5929 42.0211C99.5283 42.2157 100.385 42.6822 101.057 43.362C101.728 44.0419 102.184 44.9048 102.366 45.8426C102.549 46.7804 102.45 47.7512 102.083 48.6332C101.716 49.5153 101.097 50.2693 100.303 50.8007C99.5087 51.332 98.5754 51.6171 97.6199 51.62C96.9746 51.624 96.3351 51.4988 95.7389 51.2518C95.1427 51.0048 94.602 50.641 94.1486 50.1818C93.6953 49.7226 93.3384 49.1774 93.099 48.5782C92.8596 47.9789 92.7426 47.3379 92.7548 46.6927V46.6927Z" fill="white"/>
<path d="M59.6725 144.363C58.386 144.363 57.1522 143.852 56.2425 142.942C55.3328 142.032 54.8218 140.799 54.8218 139.512C54.8218 138.226 55.3328 136.992 56.2425 136.083C57.1522 135.173 58.386 134.662 59.6725 134.662C60.959 134.662 62.1928 135.173 63.1025 136.083C64.0122 136.992 64.5233 138.226 64.5233 139.512C64.5233 140.799 64.0122 142.032 63.1025 142.942C62.1928 143.852 60.959 144.363 59.6725 144.363V144.363Z" fill="white"/>
<path d="M83.9183 154.757C82.9592 154.754 82.0224 154.467 81.2264 153.932C80.4303 153.397 79.8109 152.637 79.4462 151.75C79.0816 150.863 78.9881 149.888 79.1777 148.948C79.3673 148.008 79.8314 147.145 80.5113 146.468C81.1912 145.792 82.0565 145.332 82.9977 145.147C83.9389 144.962 84.9137 145.061 85.7991 145.43C86.6844 145.799 87.4405 146.422 87.9717 147.22C88.5029 148.019 88.7854 148.957 88.7835 149.916C88.7797 151.203 88.2651 152.436 87.3529 153.343C86.4406 154.251 85.2053 154.759 83.9183 154.757V154.757Z" fill="white"/>
<path d="M102.455 163.603C102.446 164.562 102.152 165.496 101.612 166.288C101.071 167.08 100.308 167.694 99.4186 168.053C98.5292 168.411 97.5535 168.498 96.6147 168.303C95.6759 168.107 94.8162 167.637 94.1442 166.953C93.4722 166.269 93.018 165.401 92.8391 164.459C92.6602 163.517 92.7645 162.543 93.1389 161.661C93.5133 160.778 94.141 160.026 94.9427 159.5C95.7443 158.974 96.684 158.697 97.6429 158.704C98.9275 158.726 100.152 159.251 101.052 160.168C101.953 161.084 102.457 162.318 102.455 163.603V163.603Z" fill="white"/>
<path d="M54.822 84.6782C54.8168 84.0416 54.939 83.4103 55.1814 82.8217C55.4238 82.233 55.7815 81.6988 56.2335 81.2504C56.6855 80.802 57.2227 80.4486 57.8133 80.2109C58.404 79.9732 59.0362 79.8561 59.6728 79.8663C60.6365 79.8645 61.5791 80.1492 62.3806 80.6842C63.1822 81.2192 63.8066 81.9804 64.1745 82.8711C64.5424 83.7617 64.6372 84.7417 64.4468 85.6863C64.2564 86.631 63.7894 87.4977 63.1053 88.1764C62.4211 88.8551 61.5506 89.3151 60.6043 89.4979C59.6581 89.6808 58.6788 89.5782 57.791 89.2032C56.9032 88.8283 56.147 88.1979 55.6183 87.3922C55.0896 86.5865 54.8125 85.6418 54.822 84.6782Z" fill="white"/>
<path d="M92.7544 177.222C92.7729 175.936 93.3017 174.71 94.2245 173.813C95.1473 172.917 96.3884 172.423 97.6749 172.442C98.9614 172.46 100.188 172.989 101.085 173.912C101.981 174.835 102.474 176.076 102.456 177.362C102.447 177.999 102.312 178.628 102.06 179.213C101.808 179.798 101.443 180.327 100.986 180.771C100.529 181.215 99.989 181.565 99.397 181.8C98.805 182.035 98.1724 182.152 97.5354 182.143C96.8984 182.133 96.2694 181.999 95.6844 181.747C95.0994 181.494 94.5698 181.129 94.1258 180.673C93.6819 180.216 93.3322 179.676 93.0969 179.084C92.8616 178.492 92.7452 177.859 92.7544 177.222V177.222Z" fill="white"/>
<path d="M59.6485 103.271C58.362 103.265 57.1308 102.748 56.2256 101.834C55.3204 100.92 54.8155 99.6835 54.8218 98.3971C54.8282 97.1107 55.3454 95.8796 56.2596 94.9745C57.1738 94.0694 58.4101 93.5645 59.6967 93.5709C60.9832 93.5772 62.2144 94.0944 63.1196 95.0085C64.0248 95.9226 64.5297 97.1589 64.5234 98.4452C64.517 99.7316 63.9998 100.963 63.0856 101.868C62.1714 102.773 60.935 103.278 59.6485 103.271V103.271Z" fill="white"/>
<path d="M162.862 103.271C161.9 103.279 160.957 103 160.153 102.47C159.349 101.94 158.722 101.183 158.35 100.295C157.978 99.4071 157.879 98.4287 158.064 97.4843C158.25 96.5398 158.713 95.6721 159.394 94.9914C160.075 94.3108 160.942 93.8481 161.887 93.6621C162.832 93.4762 163.81 93.5755 164.698 93.9474C165.586 94.3193 166.343 94.9469 166.873 95.7504C167.403 96.5539 167.682 97.4969 167.675 98.4595C167.68 99.0928 167.559 99.7208 167.319 100.307C167.079 100.893 166.724 101.426 166.276 101.873C165.829 102.321 165.296 102.675 164.71 102.915C164.124 103.155 163.496 103.276 162.862 103.271V103.271Z" fill="white"/>
<path d="M83.8371 168.438C82.5539 168.427 81.3271 167.909 80.4252 166.997C79.5232 166.084 79.0197 164.851 79.0248 163.568C79.0122 162.915 79.1308 162.267 79.3735 161.66C79.6162 161.054 79.9781 160.503 80.4378 160.039C80.8974 159.575 81.4455 159.209 82.0495 158.961C82.6535 158.713 83.3012 158.588 83.9541 158.595C84.607 158.602 85.252 158.739 85.8507 159C86.4495 159.261 86.9898 159.639 87.4398 160.112C87.8897 160.585 88.2401 161.144 88.4702 161.755C88.7003 162.366 88.8054 163.017 88.7793 163.669C88.7527 164.956 88.218 166.179 87.292 167.073C86.3659 167.966 85.1238 168.457 83.8371 168.438V168.438Z" fill="white"/>
<path d="M54.8056 112.071C54.8145 110.789 55.331 109.563 56.2419 108.661C57.1529 107.76 58.3841 107.255 59.666 107.259C60.3055 107.266 60.9376 107.398 61.526 107.648C62.1144 107.899 62.6477 108.263 63.0955 108.72C63.5433 109.176 63.8967 109.717 64.1356 110.31C64.3745 110.903 64.4942 111.537 64.4879 112.177C64.4815 112.816 64.3493 113.448 64.0988 114.037C63.8482 114.625 63.4841 115.158 63.0274 115.606C62.5708 116.054 62.0303 116.407 61.4371 116.646C60.8438 116.885 60.2093 117.005 59.5697 116.998C58.932 116.992 58.3019 116.859 57.7159 116.607C57.13 116.356 56.6 115.99 56.1567 115.531C55.7134 115.073 55.3657 114.531 55.1338 113.937C54.9018 113.343 54.7903 112.709 54.8056 112.071V112.071Z" fill="white"/>
<path d="M154.002 112.102C154 113.065 153.713 114.005 153.175 114.804C152.638 115.603 151.875 116.224 150.984 116.589C150.093 116.954 149.114 117.046 148.17 116.854C147.227 116.661 146.362 116.193 145.685 115.508C145.008 114.823 144.55 113.952 144.369 113.007C144.187 112.061 144.291 111.083 144.667 110.196C145.042 109.31 145.673 108.555 146.478 108.027C147.283 107.499 148.227 107.223 149.19 107.232C150.473 107.242 151.7 107.76 152.602 108.673C153.504 109.586 154.008 110.819 154.002 112.102V112.102Z" fill="white"/>
<path d="M45.9208 144.363C44.9608 144.358 44.0238 144.068 43.2285 143.531C42.4332 142.993 41.8152 142.232 41.4529 141.343C41.0906 140.454 41.0003 139.478 41.1933 138.537C41.3863 137.597 41.854 136.735 42.5372 136.061C43.2204 135.386 44.0883 134.93 45.0312 134.749C45.974 134.568 46.9492 134.671 47.8335 135.045C48.7177 135.418 49.4712 136.046 49.9985 136.848C50.5258 137.65 50.8032 138.591 50.7956 139.551C50.7957 140.188 50.6691 140.819 50.4234 141.407C50.1777 141.995 49.8176 142.528 49.3641 142.976C48.9106 143.423 48.3727 143.776 47.7816 144.014C47.1905 144.253 46.558 144.371 45.9208 144.363Z" fill="white"/>
<path d="M176.539 144.363C175.251 144.363 174.016 143.851 173.105 142.941C172.195 142.03 171.683 140.795 171.683 139.507C171.683 138.22 172.195 136.985 173.105 136.074C174.016 135.164 175.251 134.652 176.539 134.652C177.826 134.652 179.061 135.164 179.972 136.074C180.883 136.985 181.394 138.22 181.394 139.507C181.394 140.795 180.883 142.03 179.972 142.941C179.061 143.851 177.826 144.363 176.539 144.363V144.363Z" fill="white"/>
<path d="M54.8227 71.0606C54.81 70.4247 54.9235 69.7926 55.1566 69.2008C55.3897 68.609 55.7378 68.0693 56.1809 67.6129C56.6239 67.1565 57.153 66.7924 57.7377 66.5417C58.3223 66.2911 58.9508 66.1588 59.5869 66.1526C60.2252 66.1463 60.8584 66.2657 61.4505 66.5041C62.0426 66.7425 62.582 67.0952 63.0378 67.542C63.4936 67.9888 63.8569 68.521 64.107 69.1082C64.3571 69.6955 64.4891 70.3262 64.4954 70.9644C64.5017 71.6026 64.3823 72.2358 64.1438 72.8279C63.9054 73.4199 63.5527 73.9592 63.1059 74.415C62.659 74.8707 62.1267 75.234 61.5395 75.4841C60.9522 75.7342 60.3214 75.8661 59.6831 75.8725C59.0471 75.8788 58.4162 75.7591 57.8268 75.5201C57.2374 75.2811 56.7012 74.9277 56.2492 74.4802C55.7972 74.0328 55.4384 73.5002 55.1936 72.9132C54.9488 72.3263 54.8227 71.6966 54.8227 71.0606V71.0606Z" fill="white"/>
<path d="M133.848 46.7037C133.86 45.7412 134.157 44.8038 134.702 44.0104C135.247 43.217 136.016 42.6033 136.91 42.2472C137.804 41.8911 138.784 41.8085 139.726 42.01C140.667 42.2116 141.527 42.6881 142.197 43.3791C142.868 44.0702 143.317 44.9446 143.49 45.8917C143.662 46.8387 143.55 47.8156 143.166 48.6985C142.783 49.5814 142.146 50.3305 141.336 50.8509C140.526 51.3712 139.58 51.6394 138.617 51.6214C137.333 51.5986 136.111 51.0684 135.217 50.1468C134.324 49.2252 133.831 47.9873 133.848 46.7037V46.7037Z" fill="white"/>
<path d="M83.8651 65.3143C82.5796 65.3029 81.3505 64.7853 80.4443 63.8737C79.538 62.9622 79.0277 61.7301 79.0239 60.4448C79.028 59.8047 79.1582 59.1716 79.407 58.5818C79.6557 57.992 80.0183 57.4569 80.4738 57.0072C80.9294 56.5575 81.4691 56.2019 82.0621 55.9607C82.6552 55.7196 83.2899 55.5976 83.93 55.6017C84.5702 55.6058 85.2033 55.7359 85.7932 55.9847C86.383 56.2334 86.9181 56.5959 87.3679 57.0515C87.8177 57.507 88.1733 58.0466 88.4145 58.6396C88.6557 59.2326 88.7777 59.8672 88.7736 60.5073C88.7521 61.793 88.2248 63.0185 87.3061 63.9182C86.3873 64.818 85.1511 65.3196 83.8651 65.3143V65.3143Z" fill="white"/>
<path d="M124.996 154.757C124.035 154.755 123.097 154.468 122.3 153.932C121.502 153.396 120.882 152.636 120.518 151.747C120.153 150.858 120.061 149.881 120.252 148.94C120.443 147.999 120.91 147.136 121.593 146.46C122.275 145.784 123.143 145.326 124.086 145.144C125.03 144.962 126.006 145.064 126.891 145.437C127.776 145.811 128.53 146.438 129.058 147.241C129.586 148.043 129.864 148.984 129.856 149.945C129.849 151.227 129.332 152.454 128.421 153.356C127.51 154.258 126.278 154.762 124.996 154.757V154.757Z" fill="white"/>
<path d="M54.8221 125.801C54.8157 125.167 54.9358 124.539 55.1753 123.952C55.4149 123.365 55.7691 122.832 56.2173 122.384C56.6654 121.936 57.1985 121.582 57.7852 121.342C58.372 121.103 59.0006 120.983 59.6344 120.989C60.28 120.981 60.9208 121.102 61.519 121.345C62.1172 121.588 62.6606 121.949 63.1171 122.405C63.5737 122.862 63.9343 123.405 64.1775 124.003C64.4207 124.601 64.5417 125.242 64.5333 125.888C64.5117 127.175 63.9833 128.403 63.0626 129.304C62.142 130.204 60.9032 130.706 59.6151 130.699C58.9786 130.693 58.3495 130.561 57.7639 130.312C57.1783 130.062 56.6477 129.699 56.2025 129.244C55.7573 128.789 55.4062 128.251 55.1694 127.66C54.9325 127.069 54.8145 126.438 54.8221 125.801V125.801Z" fill="white"/>
<path d="M75.0161 46.8005C75.0162 47.4361 74.8903 48.0653 74.6457 48.652C74.4012 49.2386 74.0428 49.771 73.5914 50.2184C73.1399 50.6658 72.6043 51.0193 72.0154 51.2585C71.4266 51.4978 70.7961 51.618 70.1606 51.6123C69.1916 51.617 68.2432 51.3331 67.4362 50.7969C66.6291 50.2606 66.0001 49.4962 65.6291 48.6012C65.2581 47.7061 65.1621 46.7209 65.3531 45.771C65.5442 44.8212 66.0138 43.9497 66.702 43.2677C67.3903 42.5856 68.266 42.1239 69.2176 41.9414C70.1692 41.7588 71.1536 41.8637 72.0454 42.2427C72.9372 42.6216 73.696 43.2574 74.225 44.0692C74.7541 44.8809 75.0295 45.8317 75.0161 46.8005Z" fill="white"/>
<path d="M154.002 71.0607C153.994 72.0234 153.699 72.9619 153.156 73.7571C152.613 74.5522 151.846 75.1682 150.953 75.5268C150.059 75.8855 149.079 75.9707 148.137 75.7716C147.195 75.5725 146.333 75.098 145.661 74.4085C144.989 73.7189 144.537 72.8453 144.362 71.8985C144.188 70.9517 144.298 69.9743 144.68 69.0904C145.062 68.2064 145.697 67.4557 146.506 66.9336C147.315 66.4114 148.261 66.1413 149.224 66.1574C149.86 66.1656 150.487 66.2989 151.072 66.5497C151.656 66.8006 152.185 67.164 152.629 67.6193C153.072 68.0747 153.422 68.6129 153.658 69.2034C153.894 69.7939 154.011 70.425 154.002 71.0607V71.0607Z" fill="white"/>
<path d="M181.423 112.169C181.409 113.132 181.111 114.069 180.565 114.862C180.019 115.655 179.251 116.268 178.356 116.625C177.462 116.981 176.482 117.065 175.541 116.865C174.599 116.664 173.738 116.19 173.066 115.5C172.394 114.811 171.941 113.938 171.765 112.991C171.589 112.045 171.698 111.068 172.077 110.183C172.456 109.298 173.09 108.546 173.896 108.02C174.703 107.495 175.648 107.221 176.61 107.232C177.9 107.259 179.128 107.791 180.028 108.715C180.928 109.639 181.429 110.879 181.423 112.169V112.169Z" fill="white"/>
<path d="M84.0439 172.439C85.3288 172.478 86.5467 173.022 87.4339 173.952C88.321 174.882 88.806 176.124 88.7839 177.41C88.761 178.704 88.2248 179.936 87.2935 180.834C86.3621 181.733 85.1119 182.225 83.8177 182.202C82.5236 182.179 81.2915 181.643 80.3927 180.712C79.4938 179.781 79.0017 178.531 79.0247 177.236C79.0327 176.59 79.1696 175.952 79.4274 175.359C79.6853 174.766 80.0588 174.23 80.5262 173.783C80.9937 173.337 81.5456 172.988 82.1496 172.757C82.7536 172.526 83.3976 172.418 84.0439 172.439V172.439Z" fill="white"/>
<path d="M129.856 46.7407C129.855 47.7025 129.567 48.6421 129.031 49.4406C128.495 50.2391 127.734 50.8604 126.844 51.2261C125.954 51.5917 124.976 51.6852 124.033 51.4946C123.09 51.3041 122.225 50.838 121.547 50.1556C120.87 49.4731 120.41 48.6049 120.226 47.6608C120.041 46.7168 120.142 45.7394 120.514 44.8523C120.885 43.9653 121.512 43.2085 122.314 42.6778C123.117 42.1471 124.058 41.8664 125.02 41.8712C125.658 41.873 126.288 42.0005 126.876 42.2463C127.465 42.4921 127.999 42.8514 128.448 43.3037C128.897 43.7559 129.252 44.2923 129.494 44.882C129.736 45.4718 129.859 46.1034 129.856 46.7407V46.7407Z" fill="white"/>
<path d="M116.128 60.4456C116.138 61.4094 115.861 62.3543 115.332 63.1601C114.803 63.9659 114.046 64.5963 113.158 64.9711C112.27 65.3459 111.291 65.4482 110.344 65.265C109.398 65.0818 108.527 64.6213 107.843 63.9421C107.159 63.263 106.693 62.3958 106.503 61.4508C106.313 60.5058 106.409 59.5257 106.777 58.6351C107.146 57.7445 107.771 56.9837 108.573 56.4492C109.375 55.9148 110.318 55.631 111.282 55.6338C111.918 55.6248 112.55 55.7429 113.14 55.9811C113.729 56.2193 114.266 56.5729 114.717 57.021C115.168 57.4692 115.526 58.0029 115.768 58.591C116.01 59.1791 116.133 59.8096 116.128 60.4456V60.4456Z" fill="white"/>
<path d="M138.66 168.441C138.023 168.441 137.392 168.314 136.804 168.069C136.216 167.823 135.683 167.463 135.235 167.009C134.788 166.556 134.434 166.018 134.196 165.427C133.958 164.836 133.84 164.204 133.848 163.566C133.851 162.604 134.14 161.664 134.678 160.865C135.216 160.067 135.979 159.447 136.87 159.082C137.761 158.718 138.74 158.627 139.683 158.82C140.626 159.013 141.491 159.482 142.167 160.167C142.844 160.852 143.301 161.722 143.482 162.668C143.663 163.613 143.559 164.591 143.184 165.478C142.808 166.364 142.177 167.119 141.372 167.646C140.567 168.174 139.623 168.45 138.66 168.441Z" fill="white"/>
<path d="M37.1029 112.096C37.1019 113.056 36.8165 113.993 36.2827 114.79C35.7489 115.587 34.9907 116.208 34.104 116.574C33.2172 116.941 32.2418 117.036 31.3011 116.848C30.3603 116.66 29.4964 116.197 28.8187 115.518C28.141 114.839 27.6799 113.974 27.4936 113.033C27.3074 112.092 27.4044 111.117 27.7725 110.231C28.1405 109.345 28.763 108.588 29.5612 108.056C30.3594 107.524 31.2975 107.24 32.2569 107.241C33.543 107.244 34.7756 107.756 35.6841 108.667C36.5926 109.577 37.1029 110.81 37.1029 112.096V112.096Z" fill="white"/>
<path d="M149.149 120.979C149.785 120.974 150.414 121.094 151.003 121.334C151.591 121.574 152.126 121.927 152.577 122.374C153.028 122.822 153.386 123.354 153.63 123.94C153.874 124.527 154 125.155 154 125.791C154.021 126.441 153.91 127.09 153.675 127.697C153.44 128.304 153.086 128.858 152.633 129.326C152.179 129.793 151.637 130.165 151.037 130.419C150.438 130.673 149.793 130.803 149.142 130.803C148.491 130.803 147.846 130.673 147.247 130.419C146.647 130.165 146.105 129.793 145.652 129.326C145.199 128.858 144.844 128.304 144.609 127.697C144.374 127.09 144.264 126.441 144.284 125.791C144.284 125.154 144.41 124.524 144.655 123.937C144.901 123.35 145.26 122.817 145.712 122.369C146.165 121.922 146.702 121.568 147.292 121.33C147.881 121.091 148.513 120.972 149.149 120.979V120.979Z" fill="white"/>
<path d="M167.684 112.153C167.681 112.788 167.552 113.416 167.306 114.002C167.061 114.587 166.702 115.118 166.25 115.565C165.799 116.012 165.264 116.366 164.676 116.606C164.088 116.846 163.459 116.968 162.823 116.965C161.856 116.967 160.91 116.682 160.105 116.146C159.3 115.609 158.673 114.845 158.304 113.951C157.934 113.057 157.84 112.073 158.031 111.125C158.223 110.177 158.692 109.307 159.38 108.626C160.067 107.946 160.941 107.485 161.892 107.303C162.842 107.121 163.824 107.226 164.715 107.604C165.605 107.982 166.363 108.616 166.892 109.426C167.421 110.236 167.696 111.185 167.684 112.153Z" fill="white"/>
<path d="M45.9626 79.8654C46.5966 79.8623 47.2249 79.9844 47.8115 80.2248C48.3982 80.4652 48.9315 80.8191 49.3809 81.2663C49.8303 81.7134 50.187 82.2449 50.4303 82.8303C50.6736 83.4156 50.7989 84.0433 50.7989 84.6772C50.8053 85.3145 50.6857 85.9468 50.447 86.5378C50.2084 87.1288 49.8554 87.6668 49.4083 88.1211C48.9612 88.5753 48.4287 88.9367 47.8416 89.1847C47.2544 89.4327 46.624 89.5623 45.9867 89.566C44.6976 89.5699 43.4598 89.0615 42.5456 88.1528C41.6314 87.2441 41.1157 86.0095 41.1118 84.7206C41.108 83.4316 41.6164 82.194 42.5252 81.2798C43.434 80.3657 44.6687 79.85 45.9578 79.8462L45.9626 79.8654Z" fill="white"/>
<path d="M116.138 46.7258C116.149 47.3646 116.033 47.9991 115.796 48.5923C115.559 49.1856 115.206 49.7258 114.758 50.1813C114.31 50.6368 113.776 50.9986 113.187 51.2455C112.597 51.4924 111.965 51.6195 111.326 51.6194C110.36 51.6318 109.412 51.357 108.603 50.8298C107.793 50.3027 107.159 49.5469 106.78 48.6586C106.401 47.7702 106.294 46.7892 106.474 45.8401C106.653 44.891 107.11 44.0167 107.788 43.3279C108.465 42.6392 109.331 42.1672 110.277 41.9719C111.223 41.7765 112.206 41.8665 113.101 42.2306C113.996 42.5947 114.762 43.2163 115.303 44.0167C115.844 44.817 116.134 45.7599 116.138 46.7258V46.7258Z" fill="white"/>
<path d="M50.7956 98.4596C50.7956 99.0943 50.67 99.7228 50.4261 100.309C50.1821 100.895 49.8247 101.427 49.3742 101.874C48.9238 102.321 48.3893 102.675 47.8016 102.915C47.2138 103.155 46.5844 103.276 45.9497 103.271C44.9884 103.272 44.0486 102.988 43.2494 102.454C42.4503 101.919 41.8279 101.16 41.4611 100.272C41.0944 99.3831 40.9999 98.4058 41.1897 97.4636C41.3795 96.5213 41.8449 95.6567 42.527 94.9795C43.209 94.3022 44.0769 93.8429 45.0206 93.6597C45.9642 93.4765 46.9409 93.5778 47.8269 93.9507C48.7128 94.3236 49.468 94.9512 49.9965 95.754C50.5251 96.5568 50.8032 97.4985 50.7956 98.4596V98.4596Z" fill="white"/>
<path d="M18.5277 103.271C17.8894 103.262 17.259 103.129 16.6725 102.877C16.0859 102.625 15.5547 102.26 15.1092 101.803C14.6637 101.346 14.3126 100.805 14.0759 100.213C13.8393 99.6199 13.7217 98.9863 13.7299 98.3481C13.7381 97.7099 13.872 97.0795 14.1238 96.493C14.3757 95.9065 14.7406 95.3754 15.1977 94.9299C15.6548 94.4844 16.1953 94.1334 16.7881 93.8967C17.3809 93.6601 18.0146 93.5425 18.6528 93.5507C19.9393 93.566 21.1671 94.0917 22.0659 95.0122C22.9648 95.9326 23.4612 97.1724 23.4458 98.4588C23.4305 99.7451 22.9048 100.973 21.9843 101.872C21.0637 102.77 19.8238 103.267 18.5373 103.251L18.5277 103.271Z" fill="white"/>
<path d="M162.906 120.979C163.543 120.978 164.173 121.104 164.76 121.35C165.347 121.595 165.879 121.956 166.324 122.411C166.77 122.866 167.119 123.405 167.353 123.997C167.587 124.589 167.699 125.222 167.685 125.858C167.682 127.143 167.17 128.374 166.26 129.282C165.351 130.189 164.119 130.699 162.834 130.699C161.549 130.689 160.319 130.174 159.41 129.266C158.501 128.358 157.985 127.129 157.973 125.844C157.966 125.197 158.089 124.556 158.335 123.958C158.582 123.36 158.946 122.818 159.406 122.364C159.867 121.909 160.414 121.553 161.015 121.315C161.616 121.077 162.26 120.963 162.906 120.979V120.979Z" fill="white"/>
<path d="M138.684 145.039C139.971 145.045 141.202 145.562 142.107 146.476C143.013 147.39 143.517 148.627 143.511 149.913C143.505 151.199 142.988 152.431 142.073 153.336C141.159 154.241 139.923 154.746 138.636 154.739C137.35 154.733 136.119 154.216 135.213 153.302C134.308 152.388 133.803 151.151 133.81 149.865C133.816 148.579 134.333 147.347 135.247 146.442C136.162 145.537 137.398 145.032 138.684 145.039V145.039Z" fill="white"/>
<path d="M176.572 103.271C175.285 103.271 174.052 102.76 173.142 101.851C172.232 100.941 171.721 99.7075 171.721 98.4211C171.721 97.1347 172.232 95.901 173.142 94.9914C174.052 94.0818 175.285 93.5708 176.572 93.5708C177.858 93.5708 179.092 94.0818 180.002 94.9914C180.912 95.901 181.423 97.1347 181.423 98.4211C181.423 99.7075 180.912 100.941 180.002 101.851C179.092 102.76 177.858 103.271 176.572 103.271V103.271Z" fill="white"/>
<path d="M124.986 37.8895C124.026 37.8857 123.088 37.597 122.293 37.06C121.497 36.523 120.878 35.7619 120.515 34.8731C120.152 33.9842 120.061 33.0076 120.253 32.067C120.446 31.1264 120.913 30.264 121.596 29.5892C122.279 28.9144 123.147 28.4574 124.09 28.2762C125.033 28.0949 126.008 28.1976 126.893 28.5712C127.777 28.9447 128.531 29.5724 129.059 30.3747C129.586 31.1769 129.864 32.1176 129.856 33.0777C129.856 33.7145 129.73 34.345 129.484 34.9326C129.239 35.5202 128.879 36.0532 128.426 36.5008C127.973 36.9484 127.436 37.3016 126.845 37.54C126.255 37.7784 125.623 37.8972 124.986 37.8895V37.8895Z" fill="white"/>
<path d="M125.044 55.6335C125.681 55.6335 126.311 55.7597 126.898 56.0048C127.485 56.2499 128.018 56.6091 128.466 57.0615C128.913 57.514 129.267 58.0507 129.505 58.6406C129.744 59.2305 129.864 59.8619 129.857 60.4983C129.856 61.4613 129.568 62.4024 129.032 63.2019C128.495 64.0015 127.732 64.6236 126.841 64.9892C125.95 65.3549 124.971 65.4476 124.027 65.2556C123.083 65.0636 122.218 64.5956 121.541 63.9109C120.863 63.2262 120.405 62.3557 120.223 61.41C120.041 60.4642 120.145 59.4858 120.52 58.599C120.896 57.7121 121.526 56.9567 122.331 56.4288C123.137 55.9008 124.081 55.624 125.044 55.6335Z" fill="white"/>
<path d="M37.1028 71.0313C37.098 71.9912 36.8085 72.928 36.2709 73.7233C35.7333 74.5186 34.9718 75.1365 34.0827 75.4987C33.1937 75.861 32.2172 75.9513 31.2768 75.7583C30.3364 75.5653 29.4745 75.0976 28.8 74.4145C28.1256 73.7314 27.6691 72.8635 27.4882 71.9208C27.3074 70.9781 27.4103 70.0029 27.7841 69.1187C28.1578 68.2346 28.7855 67.4812 29.5877 66.9539C30.39 66.4267 31.3306 66.1493 32.2906 66.1569C33.5742 66.1683 34.801 66.6875 35.7028 67.601C36.6046 68.5144 37.108 69.7477 37.1028 71.0313V71.0313Z" fill="white"/>
<path d="M167.682 71.152C167.654 72.1074 167.344 73.0332 166.791 73.8133C166.239 74.5933 165.468 75.193 164.577 75.5371C163.685 75.8812 162.711 75.9544 161.778 75.7475C160.845 75.5407 159.993 75.063 159.33 74.3743C158.667 73.6856 158.223 72.8166 158.051 71.8761C157.88 70.9357 157.991 69.9657 158.369 69.0878C158.747 68.2098 159.376 67.463 160.176 66.9408C160.977 66.4186 161.914 66.1444 162.87 66.1525C163.517 66.156 164.156 66.2892 164.751 66.544C165.346 66.7989 165.883 67.1703 166.332 67.6363C166.78 68.1024 167.131 68.6536 167.363 69.2575C167.595 69.8613 167.703 70.5055 167.682 71.152V71.152Z" fill="white"/>
<path d="M4.81211 103.271C3.85276 103.264 2.91723 102.972 2.1238 102.432C1.33038 101.893 0.714697 101.131 0.35462 100.242C-0.00545786 99.3524 -0.0937565 98.3764 0.100878 97.4371C0.295512 96.4978 0.76434 95.6372 1.44808 94.9643C2.13183 94.2914 2.99978 93.8363 3.94217 93.6566C4.88457 93.477 5.85909 93.5807 6.7425 93.9548C7.62591 94.329 8.37854 94.9566 8.90521 95.7584C9.43188 96.5602 9.70895 97.5002 9.70136 98.4594C9.68992 99.7454 9.16868 100.974 8.25204 101.876C7.33539 102.779 6.09824 103.28 4.81211 103.271V103.271Z" fill="white"/>
<path d="M149.171 79.866C149.806 79.8659 150.435 79.9915 151.021 80.2354C151.607 80.4794 152.139 80.8368 152.586 81.2872C153.033 81.7376 153.387 82.272 153.627 82.8597C153.867 83.4474 153.988 84.0767 153.983 84.7115C153.986 85.6753 153.702 86.6182 153.168 87.4204C152.633 88.2225 151.872 88.8476 150.982 89.2162C150.091 89.5848 149.111 89.6802 148.166 89.4904C147.221 89.3006 146.354 88.8341 145.674 88.1501C144.995 87.4662 144.535 86.5958 144.351 85.6495C144.168 84.7032 144.27 83.7238 144.645 82.8358C145.02 81.9478 145.651 81.1913 146.456 80.6625C147.262 80.1337 148.207 79.8564 149.171 79.866V79.866Z" fill="white"/>
<path d="M208.805 112.109C208.813 113.398 208.308 114.638 207.402 115.554C206.496 116.471 205.263 116.991 203.974 116.998C202.685 117.006 201.445 116.501 200.529 115.595C199.612 114.689 199.092 113.456 199.085 112.167C199.081 111.529 199.203 110.896 199.444 110.305C199.684 109.714 200.039 109.176 200.488 108.722C200.936 108.268 201.47 107.907 202.058 107.659C202.647 107.412 203.278 107.282 203.916 107.278C204.554 107.275 205.187 107.397 205.778 107.637C206.369 107.878 206.907 108.233 207.361 108.681C207.815 109.13 208.177 109.664 208.424 110.252C208.672 110.84 208.802 111.471 208.805 112.109Z" fill="white"/>
<path d="M116.137 149.835C116.145 150.797 115.868 151.739 115.341 152.543C114.813 153.346 114.058 153.975 113.173 154.35C112.287 154.725 111.31 154.828 110.366 154.646C109.422 154.465 108.552 154.008 107.868 153.332C107.185 152.656 106.717 151.792 106.524 150.85C106.332 149.908 106.423 148.93 106.787 148.041C107.151 147.151 107.771 146.389 108.569 145.852C109.366 145.315 110.305 145.026 111.267 145.023C111.904 145.016 112.535 145.134 113.126 145.373C113.717 145.611 114.254 145.964 114.707 146.412C115.16 146.86 115.52 147.393 115.765 147.98C116.01 148.568 116.137 149.198 116.137 149.835V149.835Z" fill="white"/>
<path d="M138.721 55.6341C139.356 55.6296 139.985 55.7508 140.573 55.9907C141.16 56.2305 141.695 56.5842 142.145 57.0315C142.596 57.4787 142.953 58.0107 143.197 58.5967C143.441 59.1827 143.567 59.8112 143.567 60.4459C143.584 61.0966 143.471 61.7442 143.233 62.3502C142.995 62.9562 142.638 63.5083 142.183 63.9737C141.728 64.4391 141.184 64.8083 140.583 65.0594C139.982 65.3105 139.337 65.4384 138.686 65.4355C138.035 65.4326 137.392 65.2989 136.793 65.0425C136.195 64.786 135.654 64.412 135.203 63.9426C134.752 63.4731 134.4 62.9179 134.168 62.3098C133.935 61.7017 133.828 61.0531 133.851 60.4026C133.853 59.7683 133.98 59.1408 134.227 58.5565C134.474 57.9721 134.834 57.4427 135.287 56.9989C135.741 56.5552 136.278 56.206 136.867 55.9717C137.456 55.7374 138.087 55.6226 138.721 55.6341V55.6341Z" fill="white"/>
<path d="M50.7857 112.081C50.7978 112.719 50.6832 113.352 50.4486 113.944C50.214 114.537 49.8641 115.077 49.4191 115.533C48.9741 115.989 48.4429 116.352 47.8563 116.602C47.2698 116.851 46.6396 116.981 46.0023 116.985C45.0357 117.003 44.0855 116.733 43.2726 116.21C42.4597 115.687 41.8207 114.934 41.4368 114.046C41.053 113.159 40.9416 112.178 41.117 111.227C41.2923 110.277 41.7463 109.4 42.4214 108.708C43.0965 108.016 43.9621 107.54 44.9082 107.341C45.8542 107.142 46.8381 107.229 47.7347 107.591C48.6313 107.952 49.4 108.572 49.9433 109.372C50.4866 110.172 50.7798 111.115 50.7857 112.081Z" fill="white"/>
<path d="M92.7542 60.4123C92.747 59.7752 92.8678 59.1431 93.1095 58.5535C93.3513 57.9639 93.7089 57.4288 94.1613 56.9801C94.6137 56.5313 95.1516 56.178 95.7432 55.941C96.3347 55.704 96.9678 55.5882 97.605 55.6005C98.2401 55.5954 98.8701 55.7161 99.4584 55.9557C100.047 56.1952 100.582 56.5488 101.033 56.9962C101.484 57.4435 101.842 57.9757 102.086 58.562C102.33 59.1483 102.456 59.7772 102.456 60.4123C102.454 61.0493 102.327 61.6797 102.082 62.2675C101.837 62.8554 101.478 63.3892 101.026 63.8385C100.575 64.2878 100.039 64.6437 99.4501 64.886C98.861 65.1283 98.2299 65.2522 97.5929 65.2506C96.9559 65.249 96.3255 65.122 95.7375 64.8768C95.1496 64.6316 94.6158 64.273 94.1665 63.8215C93.7171 63.3699 93.3612 62.8344 93.1188 62.2453C92.8765 61.6562 92.7526 61.0252 92.7542 60.3883V60.4123Z" fill="white"/>
<path d="M75.0345 60.4991C75.0345 61.1346 74.9086 61.7639 74.6641 62.3506C74.4196 62.9372 74.0612 63.4696 73.6097 63.917C73.1583 64.3643 72.6227 64.7179 72.0338 64.9571C71.445 65.1964 70.8145 65.3166 70.1789 65.3109C68.8939 65.2995 67.665 64.7828 66.7581 63.8723C65.8512 62.9619 65.3393 61.7311 65.333 60.4462C65.3367 59.8043 65.468 59.1696 65.7193 58.579C65.9706 57.9884 66.3368 57.4536 66.7968 57.0058C67.2567 56.558 67.801 56.2062 68.3982 55.9707C68.9954 55.7353 69.6334 55.6209 70.2752 55.6344C70.909 55.6349 71.5364 55.7618 72.1205 56.0078C72.7046 56.2538 73.2338 56.6138 73.677 57.0669C74.1203 57.5199 74.4686 58.0568 74.7017 58.6462C74.9348 59.2355 75.0479 59.8655 75.0345 60.4991Z" fill="white"/>
<path d="M195.094 112.174C195.075 113.128 194.775 114.055 194.232 114.839C193.689 115.623 192.926 116.23 192.039 116.583C191.153 116.936 190.182 117.02 189.248 116.824C188.314 116.628 187.459 116.161 186.789 115.482C186.119 114.802 185.665 113.94 185.483 113.003C185.301 112.067 185.399 111.097 185.765 110.216C186.131 109.335 186.749 108.582 187.541 108.05C188.333 107.518 189.265 107.232 190.219 107.227C190.866 107.226 191.506 107.353 192.103 107.602C192.7 107.851 193.241 108.217 193.695 108.677C194.149 109.138 194.506 109.684 194.747 110.285C194.987 110.885 195.105 111.527 195.094 112.174V112.174Z" fill="white"/>
<path d="M27.4015 84.7007C27.4124 83.4143 27.9338 82.1849 28.8512 81.283C29.7686 80.381 31.0067 79.8804 32.2932 79.8913C33.5797 79.9021 34.8092 80.4235 35.7112 81.3408C36.6132 82.2581 37.1139 83.4961 37.103 84.7825C37.0977 85.4194 36.9669 86.0491 36.7182 86.6355C36.4694 87.2219 36.1076 87.7536 35.6534 88.2002C35.1991 88.6468 34.6614 88.9996 34.0708 89.2383C33.4802 89.4771 32.8484 89.5973 32.2114 89.5919C31.5744 89.5865 30.9447 89.4557 30.3582 89.207C29.7717 88.9583 29.24 88.5965 28.7934 88.1424C28.3467 87.6882 27.9939 87.1505 27.7551 86.5599C27.5163 85.9694 27.3962 85.3376 27.4015 84.7007V84.7007Z" fill="white"/>
<path d="M133.866 19.319C133.866 18.0313 134.377 16.7964 135.288 15.8859C136.198 14.9754 137.433 14.4639 138.721 14.4639C140.009 14.4639 141.244 14.9754 142.155 15.8859C143.065 16.7964 143.577 18.0313 143.577 19.319C143.577 20.6066 143.065 21.8416 142.155 22.7521C141.244 23.6626 140.009 24.1741 138.721 24.1741C137.433 24.1741 136.198 23.6626 135.288 22.7521C134.377 21.8416 133.866 20.6066 133.866 19.319V19.319Z" fill="white"/>
<path d="M176.616 120.977C177.897 120.987 179.122 121.504 180.024 122.415C180.926 123.325 181.43 124.556 181.428 125.837C181.41 127.136 180.88 128.376 179.952 129.286C179.025 130.196 177.775 130.703 176.476 130.697C175.189 130.683 173.96 130.16 173.058 129.242C172.156 128.324 171.655 127.085 171.664 125.799C171.658 125.153 171.783 124.513 172.032 123.917C172.28 123.32 172.647 122.781 173.11 122.33C173.573 121.88 174.122 121.528 174.724 121.295C175.327 121.063 175.97 120.954 176.616 120.977Z" fill="white"/>
<path d="M70.1788 154.757C69.218 154.756 68.2791 154.469 67.4812 153.934C66.6833 153.399 66.0624 152.639 65.6972 151.75C65.3319 150.862 65.2388 149.885 65.4297 148.943C65.6205 148.001 66.0867 147.138 66.7692 146.461C67.4516 145.785 68.3195 145.327 69.2629 145.144C70.2062 144.962 71.1825 145.064 72.0679 145.437C72.9532 145.81 73.7078 146.438 74.236 147.24C74.7641 148.043 75.042 148.984 75.0344 149.945C75.0344 150.58 74.9085 151.21 74.664 151.796C74.4194 152.383 74.0611 152.915 73.6096 153.363C73.1582 153.81 72.6225 154.164 72.0337 154.403C71.4448 154.642 70.8144 154.762 70.1788 154.757V154.757Z" fill="white"/>
<path d="M97.6191 154.757C96.6587 154.76 95.719 154.477 94.9192 153.946C94.1194 153.414 93.4954 152.657 93.1264 151.77C92.7573 150.884 92.6597 149.908 92.8461 148.966C93.0324 148.023 93.4942 147.158 94.173 146.478C94.8517 145.799 95.7169 145.336 96.6589 145.149C97.6009 144.962 98.5773 145.059 99.4643 145.427C100.351 145.795 101.109 146.418 101.642 147.217C102.174 148.016 102.457 148.956 102.455 149.916C102.459 150.552 102.337 151.183 102.095 151.772C101.854 152.361 101.498 152.896 101.048 153.346C100.598 153.796 100.063 154.152 99.4748 154.395C98.8862 154.637 98.2555 154.76 97.6191 154.757V154.757Z" fill="white"/>
<path d="M111.239 168.438C109.955 168.427 108.727 167.909 107.825 166.995C106.923 166.081 106.42 164.847 106.427 163.563C106.415 162.914 106.533 162.268 106.775 161.665C107.017 161.062 107.377 160.514 107.835 160.053C108.292 159.592 108.838 159.227 109.439 158.981C110.04 158.734 110.685 158.611 111.334 158.618C111.984 158.625 112.626 158.762 113.221 159.022C113.817 159.282 114.354 159.658 114.802 160.129C115.249 160.6 115.598 161.156 115.826 161.764C116.055 162.372 116.159 163.02 116.133 163.669C116.127 164.304 115.996 164.932 115.747 165.516C115.497 166.1 115.134 166.629 114.679 167.073C114.224 167.516 113.686 167.865 113.096 168.099C112.505 168.333 111.874 168.448 111.239 168.438V168.438Z" fill="white"/>
<path d="M75.0346 177.374C75.0231 178.66 74.5019 179.889 73.5852 180.791C72.6686 181.693 71.4314 182.194 70.1453 182.185C68.864 182.159 67.6436 181.633 66.7446 180.72C65.8456 179.807 65.339 178.578 65.333 177.297C65.3309 176.65 65.4585 176.01 65.7081 175.413C65.9578 174.817 66.3245 174.277 66.7866 173.824C67.2488 173.372 67.7969 173.017 68.3986 172.781C69.0002 172.544 69.6433 172.43 70.2897 172.446C70.9269 172.451 71.5568 172.583 72.1423 172.835C72.7277 173.087 73.257 173.453 73.6991 173.912C74.1411 174.371 74.4869 174.913 74.7163 175.508C74.9456 176.102 75.0538 176.737 75.0346 177.374Z" fill="white"/>
<path d="M116.137 19.3146C116.146 19.9503 116.029 20.5815 115.794 21.1722C115.559 21.763 115.21 22.3016 114.767 22.7573C114.323 23.2131 113.795 23.5771 113.211 23.8285C112.627 24.0799 111.999 24.2139 111.363 24.2226C110.717 24.2277 110.077 24.1051 109.479 23.8618C108.881 23.6185 108.336 23.2593 107.878 22.805C107.419 22.3506 107.054 21.8101 106.805 21.2144C106.556 20.6186 106.427 19.9796 106.426 19.3338C106.433 18.0517 106.949 16.8249 107.861 15.9228C108.772 15.0207 110.004 14.5169 111.286 14.522C111.921 14.5124 112.551 14.6294 113.14 14.8662C113.729 15.1029 114.265 15.4546 114.717 15.9008C115.169 16.347 115.527 16.8787 115.771 17.4648C116.014 18.0509 116.139 18.6798 116.137 19.3146V19.3146Z" fill="white"/>
<path d="M13.6914 71.0318C13.6863 69.7474 14.1893 68.513 15.0909 67.5981C15.9924 66.6831 17.2192 66.1618 18.5037 66.1478C19.4687 66.1364 20.4153 66.4118 21.2234 66.9393C22.0315 67.4667 22.6647 68.2223 23.0425 69.1102C23.4204 69.9981 23.526 70.9782 23.3458 71.9262C23.1656 72.8741 22.7079 73.7472 22.0306 74.4346C21.3533 75.122 20.4871 75.5926 19.5418 75.7869C18.5965 75.9811 17.6148 75.8902 16.7214 75.5256C15.8279 75.161 15.0629 74.5392 14.5234 73.7391C13.9839 72.939 13.6944 71.9967 13.6914 71.0318V71.0318Z" fill="white"/>
<path d="M154 139.479C154.021 140.13 153.91 140.778 153.675 141.386C153.44 141.993 153.086 142.547 152.633 143.014C152.179 143.482 151.637 143.854 151.037 144.108C150.438 144.361 149.793 144.492 149.142 144.492C148.491 144.492 147.846 144.361 147.247 144.108C146.647 143.854 146.105 143.482 145.652 143.014C145.199 142.547 144.844 141.993 144.609 141.386C144.374 140.778 144.264 140.13 144.284 139.479C144.324 138.218 144.853 137.021 145.76 136.142C146.667 135.264 147.88 134.772 149.142 134.772C150.405 134.772 151.618 135.264 152.524 136.142C153.431 137.021 153.96 138.218 154 139.479V139.479Z" fill="white"/>
<path d="M75.0346 163.66C75.0347 164.297 74.9076 164.928 74.6605 165.515C74.4135 166.102 74.0515 166.633 73.596 167.079C73.1405 167.524 72.6006 167.873 72.008 168.107C71.4154 168.34 70.7821 168.453 70.1453 168.438C68.863 168.428 67.6369 167.911 66.7351 166.999C65.8333 166.087 65.3292 164.856 65.333 163.574C65.3455 162.29 65.8592 161.062 66.7647 160.153C67.6701 159.243 68.8955 158.723 70.179 158.704C70.8248 158.705 71.464 158.835 72.0592 159.086C72.6544 159.336 73.1937 159.703 73.6457 160.165C74.0976 160.626 74.4532 161.173 74.6917 161.773C74.9301 162.373 75.0467 163.015 75.0346 163.66V163.66Z" fill="white"/>
<path d="M149.103 103.271C148.142 103.262 147.206 102.967 146.413 102.424C145.62 101.882 145.006 101.116 144.649 100.224C144.291 99.3326 144.207 98.3548 144.406 97.415C144.606 96.4752 145.079 95.6158 145.768 94.9456C146.456 94.2755 147.328 93.8249 148.273 93.651C149.218 93.477 150.193 93.5876 151.075 93.9686C151.957 94.3496 152.706 94.984 153.227 95.7912C153.748 96.5984 154.018 97.5421 154.002 98.5027C153.996 99.1383 153.864 99.7665 153.615 100.351C153.365 100.935 153.002 101.465 152.546 101.908C152.091 102.351 151.552 102.7 150.961 102.934C150.37 103.168 149.738 103.283 149.103 103.271Z" fill="white"/>
<path d="M116.137 177.237C116.145 178.199 115.868 179.142 115.34 179.945C114.812 180.749 114.058 181.378 113.172 181.753C112.286 182.127 111.309 182.23 110.364 182.048C109.42 181.867 108.551 181.409 107.867 180.733C107.183 180.056 106.715 179.192 106.523 178.25C106.332 177.308 106.424 176.329 106.788 175.44C107.153 174.55 107.774 173.788 108.572 173.252C109.37 172.715 110.31 172.428 111.272 172.426C111.908 172.419 112.539 172.538 113.129 172.777C113.719 173.015 114.256 173.369 114.709 173.816C115.161 174.264 115.52 174.796 115.765 175.384C116.011 175.971 116.137 176.601 116.137 177.237V177.237Z" fill="white"/>
<path d="M75.0296 191.037C75.0296 191.673 74.9037 192.302 74.6592 192.889C74.4146 193.476 74.0563 194.008 73.6048 194.455C73.1533 194.903 72.6177 195.256 72.0289 195.496C71.44 195.735 70.8096 195.855 70.174 195.849C69.537 195.843 68.9074 195.711 68.3213 195.462C67.7352 195.212 67.204 194.85 66.7581 194.395C66.3121 193.94 65.9601 193.402 65.7222 192.811C65.4842 192.22 65.365 191.588 65.3713 190.951C65.3777 190.314 65.5094 189.684 65.759 189.098C66.0086 188.512 66.3712 187.981 66.8261 187.535C67.281 187.089 67.8193 186.737 68.4103 186.499C69.0012 186.262 69.6332 186.142 70.2702 186.149C70.9057 186.15 71.5345 186.279 72.1197 186.527C72.7049 186.775 73.2346 187.137 73.6779 187.592C74.1212 188.048 74.4691 188.587 74.7012 189.179C74.9333 189.77 75.0449 190.402 75.0296 191.037V191.037Z" fill="white"/>
<path d="M97.4824 209.525C96.8462 209.521 96.2173 209.39 95.6329 209.138C95.0484 208.887 94.5203 208.521 94.0798 208.062C93.6392 207.603 93.2952 207.061 93.0679 206.466C92.8407 205.872 92.7348 205.239 92.7567 204.603C92.7719 203.966 92.9124 203.338 93.1702 202.756C93.4279 202.173 93.798 201.647 94.2591 201.207C94.7203 200.767 95.2636 200.423 95.8579 200.193C96.4522 199.963 97.086 199.853 97.723 199.868C98.36 199.883 98.9878 200.024 99.5705 200.281C100.153 200.539 100.679 200.909 101.119 201.37C101.559 201.831 101.903 202.375 102.133 202.969C102.363 203.563 102.473 204.197 102.458 204.834C102.443 205.47 102.301 206.096 102.042 206.677C101.783 207.257 101.412 207.781 100.949 208.217C100.486 208.654 99.9416 208.994 99.3466 209.218C98.7516 209.443 98.118 209.547 97.4824 209.525V209.525Z" fill="white"/>
<path d="M37.1027 98.3525C37.1103 99.3119 36.8332 100.252 36.3063 101.054C35.7794 101.856 35.0265 102.484 34.1428 102.858C33.2591 103.232 32.2843 103.335 31.3418 103.155C30.3993 102.975 29.5313 102.519 28.8478 101.846C28.1642 101.173 27.6957 100.312 27.5016 99.3719C27.3075 98.4323 27.3965 97.4561 27.7573 96.5671C28.1182 95.678 28.7346 94.9159 29.5286 94.3772C30.3227 93.8385 31.2587 93.5473 32.2183 93.5406C33.504 93.5317 34.7406 94.0335 35.6565 94.9357C36.5724 95.838 37.0926 97.0669 37.1027 98.3525V98.3525Z" fill="white"/>
<path d="M116.128 5.69682C116.128 6.33279 116.002 6.96245 115.758 7.54941C115.513 8.13636 115.154 8.66896 114.702 9.11642C114.25 9.56387 113.714 9.9173 113.124 10.1563C112.535 10.3952 111.904 10.515 111.268 10.5086C110.302 10.5105 109.357 10.225 108.554 9.68848C107.75 9.15197 107.125 8.38868 106.757 7.49568C106.388 6.60268 106.294 5.62033 106.485 4.67355C106.677 3.72677 107.146 2.85834 107.832 2.17871C108.519 1.49908 109.392 1.03895 110.341 0.856847C111.289 0.674744 112.271 0.778896 113.16 1.15605C114.05 1.5332 114.807 2.16632 115.335 2.97489C115.864 3.78345 116.14 4.73093 116.128 5.69682V5.69682Z" fill="white"/>
<path d="M50.7896 71.0311C50.794 71.6658 50.6728 72.2952 50.433 72.8829C50.1931 73.4706 49.8394 74.005 49.3921 74.4554C48.9448 74.9058 48.4128 75.2632 47.8267 75.5071C47.2407 75.7511 46.6121 75.8766 45.9773 75.8766C44.6883 75.8728 43.4535 75.3571 42.5447 74.443C41.6359 73.5289 41.1275 72.2912 41.1314 71.0023C41.1352 69.7133 41.6509 68.4787 42.5651 67.57C43.4794 66.6613 44.7171 66.1529 46.0062 66.1568C46.641 66.1605 47.2688 66.2898 47.8534 66.5372C48.4381 66.7847 48.968 67.1453 49.4126 67.5984C49.8572 68.0515 50.2078 68.588 50.4441 69.1772C50.6804 69.7663 50.7978 70.3964 50.7896 71.0311V71.0311Z" fill="white"/>
<path d="M138.735 37.8896C137.449 37.8896 136.215 37.3786 135.305 36.469C134.395 35.5593 133.884 34.3256 133.884 33.0393C133.884 31.7529 134.395 30.5192 135.305 29.6096C136.215 28.7 137.449 28.189 138.735 28.189C140.022 28.189 141.255 28.7 142.165 29.6096C143.075 30.5192 143.586 31.7529 143.586 33.0393C143.586 34.3256 143.075 35.5593 142.165 36.469C141.255 37.3786 140.022 37.8896 138.735 37.8896V37.8896Z" fill="white"/>
<path d="M97.6522 37.8877C97.0152 37.8915 96.3837 37.7698 95.7937 37.5296C95.2037 37.2893 94.6668 36.9352 94.2137 36.4875C93.7606 36.0398 93.4001 35.5072 93.1528 34.9202C92.9056 34.3332 92.7763 33.7032 92.7725 33.0663C92.7688 32.4293 92.8905 31.7979 93.1307 31.2079C93.371 30.618 93.7251 30.0812 94.1729 29.6281C94.6206 29.1751 95.1533 28.8146 95.7403 28.5674C96.3274 28.3201 96.9574 28.1909 97.5944 28.1871C98.8809 28.1794 100.118 28.6831 101.033 29.5873C101.948 30.4915 102.466 31.7221 102.474 33.0085C102.482 34.2949 101.978 35.5317 101.074 36.4467C100.169 37.3617 98.9387 37.8801 97.6522 37.8877V37.8877Z" fill="white"/>
<path d="M116.146 33.1066C116.146 33.7425 116.019 34.372 115.773 34.9583C115.527 35.5446 115.167 36.076 114.713 36.5214C114.259 36.9667 113.721 37.3171 113.13 37.552C112.539 37.7869 111.907 37.9017 111.271 37.8895C110.31 37.8847 109.372 37.5944 108.576 37.0555C107.78 36.5166 107.162 35.7534 106.801 34.8628C106.439 33.9722 106.351 32.9943 106.546 32.0533C106.742 31.1122 107.212 30.2504 107.898 29.5773C108.584 28.9041 109.455 28.45 110.4 28.2724C111.344 28.0949 112.32 28.202 113.204 28.5801C114.088 28.9583 114.839 29.5904 115.363 30.3963C115.887 31.2022 116.159 32.1455 116.146 33.1066V33.1066Z" fill="white"/>
<path d="M97.5664 195.85C96.9307 195.85 96.3014 195.725 95.7147 195.48C95.128 195.236 94.5956 194.877 94.1482 194.426C93.7007 193.974 93.3472 193.439 93.1079 192.85C92.8686 192.261 92.7484 191.631 92.7541 190.995C92.7576 190.358 92.8865 189.728 93.1335 189.141C93.3805 188.554 93.7407 188.021 94.1936 187.573C94.6465 187.125 95.1832 186.771 95.773 186.531C96.3629 186.29 96.9943 186.168 97.6313 186.171C98.2683 186.175 98.8984 186.304 99.4856 186.551C100.073 186.798 100.606 187.158 101.054 187.611C101.502 188.064 101.856 188.6 102.097 189.19C102.337 189.78 102.459 190.411 102.456 191.048C102.451 191.685 102.32 192.314 102.072 192.9C101.823 193.486 101.461 194.017 101.007 194.463C100.553 194.909 100.015 195.262 99.4249 195.5C98.8345 195.738 98.2029 195.857 97.5664 195.85V195.85Z" fill="white"/>
<path d="M195.094 139.576C195.08 140.536 194.781 141.47 194.235 142.26C193.689 143.049 192.922 143.66 192.029 144.013C191.136 144.366 190.158 144.446 189.22 144.244C188.281 144.041 187.424 143.564 186.757 142.874C186.089 142.184 185.642 141.311 185.471 140.366C185.3 139.421 185.413 138.447 185.797 137.567C186.18 136.687 186.816 135.94 187.624 135.421C188.431 134.902 189.375 134.635 190.335 134.653C190.972 134.66 191.601 134.793 192.186 135.045C192.771 135.297 193.301 135.662 193.743 136.12C194.186 136.578 194.533 137.119 194.765 137.713C194.997 138.306 195.109 138.939 195.094 139.576Z" fill="white"/>
</svg>
