<?xml version="1.0" standalone="yes"?><svg xmlns="http://www.w3.org/2000/svg" viewBox="0 0 2985.36 463.1"><defs><style>.cls-1{fill:#fff;}</style></defs><g id="Layer_2" data-name="Layer 2"><g id="Layer_1-2" data-name="Layer 1"><path class="cls-1" d="M133.65,392.59a66.83,66.83,0,1,1-66.83-66.83A66.83,66.83,0,0,1,133.65,392.59Z"/><polygon class="cls-1" points="296.64 459.41 226.79 459.41 226.79 232.85 0 232.85 0 163 296.64 163 296.64 459.41"/><path class="cls-1" d="M713.52,314.32h41.59c20.38,0,46.48,8,46.48,38.33,0,26.23-20.8,37.9-43.43,37.9H727v68.86H713.52ZM727,378.26h30.58c15.28,0,30.57-6.56,30.57-25.61,0-18.66-15.9-26-31.39-26H727Z"/><path class="cls-1" d="M836.66,314.32h37.92c11.42,0,51.37,0,51.37,38.11,0,27.68-21,35.25-36.89,37.3l42,69.68H915.76l-40.57-68.86H850.12v68.86H836.66Zm13.46,63.94h28.54c28.34,0,33.84-15.78,33.84-25.83s-5.5-25.82-33.84-25.82H850.12Z"/><path class="cls-1" d="M963.68,314.32h13.46V459.41H963.68Z"/><path class="cls-1" d="M1002.42,314.32h14.48l46.47,127.27,46.89-127.27h14.27l-54.84,145.09h-13.45Z"/><path class="cls-1" d="M1182.85,314.32h13.86l60.75,145.09h-15.08l-15.7-38.53h-76.45l-16.31,38.53h-14.07Zm6.31,14.75-33.63,79.52h66.26Z"/><path class="cls-1" d="M1302.53,326.61h-49.34V314.32h112.13v12.29H1316v132.8h-13.45Z"/><path class="cls-1" d="M1393.67,314.32h88.27v12.29h-74.82v51.65h70.13v12.29h-70.13v56.57h78.08v12.29h-91.53Z"/><path class="cls-1" d="M1579.81,314.32h13.45V459.41h-13.45Z"/><path class="cls-1" d="M1638.94,314.32h17.32l87.87,127.06h.41V314.32H1758V459.41h-17.33L1652.8,332.35h-.41V459.41h-13.45Z"/><path class="cls-1" d="M1783.29,314.32h14.47l46.48,127.27,46.89-127.27h14.27l-54.84,145.09H1837.1Z"/><path class="cls-1" d="M1930.69,314.32H2019v12.29h-74.82v51.65h70.13v12.29h-70.13v56.57h78.08v12.29h-91.53Z"/><path class="cls-1" d="M2061.58,432.57c7.13,12.09,18.76,18.24,33,18.24,18.14,0,32.41-11.07,32.41-28.48,0-40.58-74.41-16.81-74.41-71.94,0-25.83,22-39.76,46.28-39.76,15.69,0,29.56,5.33,39.34,18.24l-11.62,8.4c-6.72-9.43-15.69-14.35-28.13-14.35-17.33,0-32.41,9-32.41,27.47,0,43.65,74.41,17.42,74.41,71.94,0,26.23-21.41,40.77-44.85,40.77-19,0-35.68-6.15-46.89-21.92Z"/><path class="cls-1" d="M2209.19,326.61h-49.34V314.32H2272v12.29h-49.34v132.8h-13.45Z"/><path class="cls-1" d="M2298.9,314.32h20.18l52.6,121.73,52.59-121.73h19.17V459.41H2430V331.53h-.41l-55,127.88h-5.91l-55.86-127.88h-.41V459.41H2298.9Z"/><path class="cls-1" d="M2487.69,314.32H2576v12.29h-74.81v51.65h70.13v12.29h-70.13v56.57h78.08v12.29h-91.54Z"/><path class="cls-1" d="M2614.71,314.32H2632l87.87,127.06h.41V314.32h13.46V459.41h-17.33l-87.87-127.06h-.4V459.41h-13.46Z"/><path class="cls-1" d="M2811.45,326.61h-49.33V314.32h112.12v12.29h-49.33v132.8h-13.46Z"/><path class="cls-1" d="M2906.47,432.57c7.13,12.09,18.75,18.24,33,18.24,18.14,0,32.41-11.07,32.41-28.48,0-40.58-74.4-16.81-74.4-71.94,0-25.83,22-39.76,46.27-39.76,15.7,0,29.56,5.33,39.35,18.24l-11.62,8.4c-6.73-9.43-15.7-14.35-28.13-14.35-17.34,0-32.42,9-32.42,27.47,0,43.65,74.41,17.42,74.41,71.94,0,26.23-21.41,40.77-44.85,40.77-19,0-35.68-6.15-46.89-21.92Z"/><polygon class="cls-1" points="553.03 459.41 389.78 459.41 389.78 69.85 0 69.85 0 0 459.63 0 459.63 389.56 553.03 389.56 553.03 459.41"/><path class="cls-1" d="M845.87,25.8c-5.31-5.95-12.62-10.89-21.72-14.72S803.5,5.35,789.72,5.35h-77V221.72h34.43V129h42.54c13.82,0,25.4-1.93,34.43-5.73s16.41-8.78,21.72-14.72a50.65,50.65,0,0,0,11.18-20.2,78.08,78.08,0,0,0,3.1-21.16A78.2,78.2,0,0,0,857.05,46,50.76,50.76,0,0,0,845.87,25.8ZM747.18,36.21h34.51a99.93,99.93,0,0,1,16,1.3,41.23,41.23,0,0,1,13.61,4.58,23.66,23.66,0,0,1,9.15,9.15c2.3,4,3.47,9.34,3.47,15.92s-1.17,11.93-3.47,15.92a23.69,23.69,0,0,1-9.15,9.16A41.37,41.37,0,0,1,797.7,96.8a97.61,97.61,0,0,1-16,1.3H747.18Z"/><path class="cls-1" d="M1130.6,32.7a106.71,106.71,0,0,0-35.61-24,122.86,122.86,0,0,0-90.87,0,106.75,106.75,0,0,0-35.62,24,111.54,111.54,0,0,0-23.2,36,118.81,118.81,0,0,0-8.39,44.81,118.81,118.81,0,0,0,8.39,44.81,111.29,111.29,0,0,0,23.2,36,106.75,106.75,0,0,0,35.62,24,123.12,123.12,0,0,0,90.87,0,106.61,106.61,0,0,0,35.61-24,111.36,111.36,0,0,0,23.21-36,119.19,119.19,0,0,0,8.38-44.81,119.26,119.26,0,0,0-8.38-44.81A111.61,111.61,0,0,0,1130.6,32.7Zm-81,161.72A73.47,73.47,0,0,1,994,170.69a76.51,76.51,0,0,1-15.45-25.63,93.74,93.74,0,0,1,0-63A77,77,0,0,1,994,56.37a76,76,0,0,1,111,0A77.2,77.2,0,0,1,1120.53,82a93.74,93.74,0,0,1,0,63.05,76.9,76.9,0,0,1-15.46,25.64,73.55,73.55,0,0,1-55.51,23.72Z"/><rect class="cls-1" x="1259.22" y="5.35" width="34.43" height="216.38"/><polygon class="cls-1" points="1558.97 172.51 1446.96 5.35 1404.98 5.35 1404.98 221.72 1439.41 221.72 1439.41 54.49 1552.62 221.72 1593.4 221.72 1593.4 5.35 1558.97 5.35 1558.97 172.51"/><polygon class="cls-1" points="1674.7 38 1742.48 38 1742.48 221.72 1776.91 221.72 1776.91 38 1844.7 38 1844.7 5.35 1674.7 5.35 1674.7 38"/><polygon class="cls-1" points="1926.08 36.21 2026.39 36.21 1940.78 221.72 1979.38 221.72 2064 33.88 2064.26 5.35 1926.08 5.35 1926.08 36.21"/><path class="cls-1" d="M2236,129.05c4.75-4.55,9.4-9.31,13.82-14.12a110.47,110.47,0,0,0,11.92-15.58,85.38,85.38,0,0,0,8.45-17.71,62.33,62.33,0,0,0,3.29-20.43c0-10.1-1.85-19.07-5.49-26.69a54.94,54.94,0,0,0-15.09-19.16,66.48,66.48,0,0,0-22.09-11.52c-16.55-5.09-36.63-4.94-52.79-.47A65.05,65.05,0,0,0,2156.23,14a61.91,61.91,0,0,0-15.92,17.93,69.26,69.26,0,0,0-8.55,25.3l-.46,3.1L2168,63.49l.47-2.66c1.66-9.36,5.63-16.78,11.81-22s14.11-7.92,23.65-7.92a39.27,39.27,0,0,1,13.14,2.21,32.8,32.8,0,0,1,10.63,6.12,28,28,0,0,1,7,9.57,30.69,30.69,0,0,1,2.57,12.75,37.31,37.31,0,0,1-1.79,11.58,51.05,51.05,0,0,1-4.91,10.67,78.58,78.58,0,0,1-7.17,9.88,109.2,109.2,0,0,1-8.45,8.88l-84.43,83.84-.87.87v34.49h143.83V190.86H2172Z"/></g></g></svg>